<svg xmlns="http://www.w3.org/2000/svg" xmlns:xlink="http://www.w3.org/1999/xlink" width="500" zoomAndPan="magnify" viewBox="0 0 375 359.999987" height="480" preserveAspectRatio="xMidYMid meet" version="1.0"><defs><g/></defs><g fill="#ff00ff" fill-opacity="1"><g transform="translate(167.63731, 328.717744)"><g><path d="M 109.914062 -211.859375 L 154.929688 -110.886719 L 44.492188 -61.460938 C 32.320312 -56.011719 23.8125 -58.894531 18.90625 -70.253906 L -3.152344 -119.53125 C -8.628906 -130.984375 -17.121094 -134.226562 -28.480469 -129.320312 C -39.921875 -124.199219 -42.949219 -115.625 -37.5 -103.453125 L -15.902344 -55.199219 C -0.414062 -20.589844 24.785156 -11.09375 59.691406 -26.714844 L 187.730469 -84.023438 C 198.875 -89.011719 202.167969 -96.996094 197.667969 -107.835938 L 144.59375 -227.203125 C 139.410156 -238.789062 131.128906 -241.949219 119.6875 -236.828125 C 108.101562 -231.644531 104.796875 -223.296875 109.914062 -211.859375 Z M 100.105469 -19.804688 C 99.886719 -16.363281 100.464844 -13.101562 101.84375 -10.023438 C 103.15625 -7.089844 105.136719 -4.628906 107.785156 -2.648438 C 110.644531 -0.582031 113.683594 0.699219 116.980469 0.984375 C 120.421875 1.203125 123.683594 0.625 126.617188 -0.6875 C 129.550781 -2 132.011719 -3.984375 133.992188 -6.628906 C 136.125 -9.34375 137.191406 -12.464844 137.410156 -15.90625 C 137.84375 -19.269531 137.476562 -22.449219 136.164062 -25.382812 C 134.785156 -28.460938 132.59375 -31 129.730469 -33.066406 C 127.082031 -35.050781 124.109375 -36.183594 120.667969 -36.402344 C 117.226562 -36.621094 114.109375 -36.109375 111.324219 -34.863281 C 108.390625 -33.546875 105.785156 -31.503906 103.65625 -28.789062 C 101.671875 -26.140625 100.539062 -23.167969 100.105469 -19.804688 Z M 100.105469 -19.804688 "/></g></g></g><g fill="#00ffff" fill-opacity="1"><g transform="translate(156.372323, 333.759618)"><g><path d="M 109.914062 -211.859375 L 154.929688 -110.886719 L 44.492188 -61.460938 C 32.320312 -56.011719 23.8125 -58.894531 18.90625 -70.253906 L -3.152344 -119.53125 C -8.628906 -130.984375 -17.121094 -134.226562 -28.480469 -129.320312 C -39.921875 -124.199219 -42.949219 -115.625 -37.5 -103.453125 L -15.902344 -55.199219 C -0.414062 -20.589844 24.785156 -11.09375 59.691406 -26.714844 L 187.730469 -84.023438 C 198.875 -89.011719 202.167969 -96.996094 197.667969 -107.835938 L 144.59375 -227.203125 C 139.410156 -238.789062 131.128906 -241.949219 119.6875 -236.828125 C 108.101562 -231.644531 104.796875 -223.296875 109.914062 -211.859375 Z M 100.105469 -19.804688 C 99.886719 -16.363281 100.464844 -13.101562 101.84375 -10.023438 C 103.15625 -7.089844 105.136719 -4.628906 107.785156 -2.648438 C 110.644531 -0.582031 113.683594 0.699219 116.980469 0.984375 C 120.421875 1.203125 123.683594 0.625 126.617188 -0.6875 C 129.550781 -2 132.011719 -3.984375 133.992188 -6.628906 C 136.125 -9.34375 137.191406 -12.464844 137.410156 -15.90625 C 137.84375 -19.269531 137.476562 -22.449219 136.164062 -25.382812 C 134.785156 -28.460938 132.59375 -31 129.730469 -33.066406 C 127.082031 -35.050781 124.109375 -36.183594 120.667969 -36.402344 C 117.226562 -36.621094 114.109375 -36.109375 111.324219 -34.863281 C 108.390625 -33.546875 105.785156 -31.503906 103.65625 -28.789062 C 101.671875 -26.140625 100.539062 -23.167969 100.105469 -19.804688 Z M 100.105469 -19.804688 "/></g></g></g><g fill="#38b6ff" fill-opacity="1"><g transform="translate(162.004817, 331.23868)"><g><path d="M 109.914062 -211.859375 L 154.929688 -110.886719 L 44.492188 -61.460938 C 32.320312 -56.011719 23.8125 -58.894531 18.90625 -70.253906 L -3.152344 -119.53125 C -8.628906 -130.984375 -17.121094 -134.226562 -28.480469 -129.320312 C -39.921875 -124.199219 -42.949219 -115.625 -37.5 -103.453125 L -15.902344 -55.199219 C -0.414062 -20.589844 24.785156 -11.09375 59.691406 -26.714844 L 187.730469 -84.023438 C 198.875 -89.011719 202.167969 -96.996094 197.667969 -107.835938 L 144.59375 -227.203125 C 139.410156 -238.789062 131.128906 -241.949219 119.6875 -236.828125 C 108.101562 -231.644531 104.796875 -223.296875 109.914062 -211.859375 Z M 100.105469 -19.804688 C 99.886719 -16.363281 100.464844 -13.101562 101.84375 -10.023438 C 103.15625 -7.089844 105.136719 -4.628906 107.785156 -2.648438 C 110.644531 -0.582031 113.683594 0.699219 116.980469 0.984375 C 120.421875 1.203125 123.683594 0.625 126.617188 -0.6875 C 129.550781 -2 132.011719 -3.984375 133.992188 -6.628906 C 136.125 -9.34375 137.191406 -12.464844 137.410156 -15.90625 C 137.84375 -19.269531 137.476562 -22.449219 136.164062 -25.382812 C 134.785156 -28.460938 132.59375 -31 129.730469 -33.066406 C 127.082031 -35.050781 124.109375 -36.183594 120.667969 -36.402344 C 117.226562 -36.621094 114.109375 -36.109375 111.324219 -34.863281 C 108.390625 -33.546875 105.785156 -31.503906 103.65625 -28.789062 C 101.671875 -26.140625 100.539062 -23.167969 100.105469 -19.804688 Z M 100.105469 -19.804688 "/></g></g></g><g fill="#ff00ff" fill-opacity="1"><g transform="translate(65.036457, 285.669602)"><g><path d="M 164.410156 -99.207031 L 100.800781 -241.328125 C 94.507812 -255.378906 84.289062 -259.132812 70.058594 -252.765625 L -0.8125 -221.257812 C -43.503906 -202.148438 -55.058594 -170.71875 -35.550781 -127.136719 L 8.394531 -28.949219 C 14.761719 -14.71875 25.0625 -10.789062 39.292969 -17.160156 C 53.523438 -23.527344 57.371094 -34.003906 50.925781 -48.414062 L 35.179688 -84.066406 L 105.875 -115.496094 L 121.71875 -80.097656 C 128.167969 -65.691406 138.722656 -61.660156 153.308594 -68.191406 C 167.183594 -74.398438 170.859375 -84.796875 164.410156 -99.207031 Z M 15.894531 -126.679688 L 6.738281 -147.132812 C 0.210938 -161.71875 4.242188 -172.277344 18.648438 -178.726562 L 67.742188 -200.699219 L 86.691406 -158.363281 Z M 15.894531 -126.679688 "/></g></g></g><g fill="#00ffff" fill-opacity="1"><g transform="translate(51.374604, 291.784248)"><g><path d="M 164.410156 -99.207031 L 100.800781 -241.328125 C 94.507812 -255.378906 84.289062 -259.132812 70.058594 -252.765625 L -0.8125 -221.257812 C -43.503906 -202.148438 -55.058594 -170.71875 -35.550781 -127.136719 L 8.394531 -28.949219 C 14.761719 -14.71875 25.0625 -10.789062 39.292969 -17.160156 C 53.523438 -23.527344 57.371094 -34.003906 50.925781 -48.414062 L 35.179688 -84.066406 L 105.875 -115.496094 L 121.71875 -80.097656 C 128.167969 -65.691406 138.722656 -61.660156 153.308594 -68.191406 C 167.183594 -74.398438 170.859375 -84.796875 164.410156 -99.207031 Z M 15.894531 -126.679688 L 6.738281 -147.132812 C 0.210938 -161.71875 4.242188 -172.277344 18.648438 -178.726562 L 67.742188 -200.699219 L 86.691406 -158.363281 Z M 15.894531 -126.679688 "/></g></g></g><g fill="#5e17eb" fill-opacity="1"><g transform="translate(58.205529, 288.726925)"><g><path d="M 164.410156 -99.207031 L 100.800781 -241.328125 C 94.507812 -255.378906 84.289062 -259.132812 70.058594 -252.765625 L -0.8125 -221.257812 C -43.503906 -202.148438 -55.058594 -170.71875 -35.550781 -127.136719 L 8.394531 -28.949219 C 14.761719 -14.71875 25.0625 -10.789062 39.292969 -17.160156 C 53.523438 -23.527344 57.371094 -34.003906 50.925781 -48.414062 L 35.179688 -84.066406 L 105.875 -115.496094 L 121.71875 -80.097656 C 128.167969 -65.691406 138.722656 -61.660156 153.308594 -68.191406 C 167.183594 -74.398438 170.859375 -84.796875 164.410156 -99.207031 Z M 15.894531 -126.679688 L 6.738281 -147.132812 C 0.210938 -161.71875 4.242188 -172.277344 18.648438 -178.726562 L 67.742188 -200.699219 L 86.691406 -158.363281 Z M 15.894531 -126.679688 "/></g></g></g></svg>