<svg xmlns="http://www.w3.org/2000/svg" xmlns:xlink="http://www.w3.org/1999/xlink" width="500" zoomAndPan="magnify" viewBox="0 0 375 299.999988" height="400" preserveAspectRatio="xMidYMid meet" version="1.0"><defs><g/><clipPath id="f2f8fecc9a"><path d="M 32 84 L 368 84 L 368 201 L 32 201 Z M 32 84 " clip-rule="nonzero"/></clipPath><clipPath id="c3be459d21"><path d="M 348.078125 245.007812 L 16.992188 97.097656 L 100.769531 -90.433594 L 431.855469 57.476562 Z M 348.078125 245.007812 " clip-rule="nonzero"/></clipPath><clipPath id="05d974b81b"><path d="M 348.078125 245.007812 L 16.992188 97.097656 L 100.769531 -90.433594 L 431.855469 57.476562 Z M 348.078125 245.007812 " clip-rule="nonzero"/></clipPath><clipPath id="c9c7ed35c0"><path d="M 348.078125 245.007812 L 16.992188 97.097656 L 100.769531 -90.433594 L 431.855469 57.476562 Z M 348.078125 245.007812 " clip-rule="nonzero"/></clipPath><clipPath id="3d247a2312"><path d="M 27 70 L 39 70 L 39 107 L 27 107 Z M 27 70 " clip-rule="nonzero"/></clipPath><clipPath id="895b5eda6e"><path d="M 348.078125 245.007812 L 16.992188 97.097656 L 100.769531 -90.433594 L 431.855469 57.476562 Z M 348.078125 245.007812 " clip-rule="nonzero"/></clipPath><clipPath id="b95c125a76"><path d="M 348.078125 245.007812 L 16.992188 97.097656 L 100.769531 -90.433594 L 431.855469 57.476562 Z M 348.078125 245.007812 " clip-rule="nonzero"/></clipPath><clipPath id="9eefb02b2a"><path d="M 348.078125 245.007812 L 16.992188 97.097656 L 100.769531 -90.433594 L 431.855469 57.476562 Z M 348.078125 245.007812 " clip-rule="nonzero"/></clipPath><clipPath id="89260947d0"><path d="M 31 21 L 359 21 L 359 194 L 31 194 Z M 31 21 " clip-rule="nonzero"/></clipPath><clipPath id="724c7da950"><path d="M 348.078125 245.007812 L 16.992188 97.097656 L 100.769531 -90.433594 L 431.855469 57.476562 Z M 348.078125 245.007812 " clip-rule="nonzero"/></clipPath><clipPath id="fc6b86e51e"><path d="M 348.078125 245.007812 L 16.992188 97.097656 L 100.769531 -90.433594 L 431.855469 57.476562 Z M 348.078125 245.007812 " clip-rule="nonzero"/></clipPath><clipPath id="cfdfbd0651"><path d="M 348.078125 245.007812 L 16.992188 97.097656 L 100.769531 -90.433594 L 431.855469 57.476562 Z M 348.078125 245.007812 " clip-rule="nonzero"/></clipPath><clipPath id="35064a3bef"><path d="M 37 70 L 353 70 L 353 185 L 37 185 Z M 37 70 " clip-rule="nonzero"/></clipPath><clipPath id="6e8d9d6d90"><path d="M 348.078125 245.007812 L 16.992188 97.097656 L 100.769531 -90.433594 L 431.855469 57.476562 Z M 348.078125 245.007812 " clip-rule="nonzero"/></clipPath><clipPath id="ed9d82b378"><path d="M 348.078125 245.007812 L 16.992188 97.097656 L 100.769531 -90.433594 L 431.855469 57.476562 Z M 348.078125 245.007812 " clip-rule="nonzero"/></clipPath><clipPath id="f48bd7f9ea"><path d="M 348.078125 245.007812 L 16.992188 97.097656 L 100.769531 -90.433594 L 431.855469 57.476562 Z M 348.078125 245.007812 " clip-rule="nonzero"/></clipPath><clipPath id="78659ffe66"><path d="M 31 66 L 359 66 L 359 194 L 31 194 Z M 31 66 " clip-rule="nonzero"/></clipPath><clipPath id="71a551f23e"><path d="M 348.078125 245.007812 L 16.992188 97.097656 L 100.769531 -90.433594 L 431.855469 57.476562 Z M 348.078125 245.007812 " clip-rule="nonzero"/></clipPath><clipPath id="832a23dcd6"><path d="M 348.078125 245.007812 L 16.992188 97.097656 L 100.769531 -90.433594 L 431.855469 57.476562 Z M 348.078125 245.007812 " clip-rule="nonzero"/></clipPath><clipPath id="2d6c32fb6f"><path d="M 348.078125 245.007812 L 16.992188 97.097656 L 100.769531 -90.433594 L 431.855469 57.476562 Z M 348.078125 245.007812 " clip-rule="nonzero"/></clipPath><clipPath id="2c8a16be18"><path d="M 180 41 L 310 41 L 310 96 L 180 96 Z M 180 41 " clip-rule="nonzero"/></clipPath><clipPath id="9dc0bdf33e"><path d="M 348.078125 245.007812 L 16.992188 97.097656 L 100.769531 -90.433594 L 431.855469 57.476562 Z M 348.078125 245.007812 " clip-rule="nonzero"/></clipPath><clipPath id="ec3a28d82d"><path d="M 348.078125 245.007812 L 16.992188 97.097656 L 100.769531 -90.433594 L 431.855469 57.476562 Z M 348.078125 245.007812 " clip-rule="nonzero"/></clipPath><clipPath id="a82866c151"><path d="M 348.078125 245.007812 L 16.992188 97.097656 L 100.769531 -90.433594 L 431.855469 57.476562 Z M 348.078125 245.007812 " clip-rule="nonzero"/></clipPath><clipPath id="279ac2c162"><path d="M 135 26 L 327 26 L 327 94 L 135 94 Z M 135 26 " clip-rule="nonzero"/></clipPath><clipPath id="bebfd6bd26"><path d="M 348.078125 245.007812 L 16.992188 97.097656 L 100.769531 -90.433594 L 431.855469 57.476562 Z M 348.078125 245.007812 " clip-rule="nonzero"/></clipPath><clipPath id="fc1c7597b4"><path d="M 348.078125 245.007812 L 16.992188 97.097656 L 100.769531 -90.433594 L 431.855469 57.476562 Z M 348.078125 245.007812 " clip-rule="nonzero"/></clipPath><clipPath id="8d61717cad"><path d="M 348.078125 245.007812 L 16.992188 97.097656 L 100.769531 -90.433594 L 431.855469 57.476562 Z M 348.078125 245.007812 " clip-rule="nonzero"/></clipPath></defs><g clip-path="url(#f2f8fecc9a)"><g clip-path="url(#c3be459d21)"><g clip-path="url(#05d974b81b)"><g clip-path="url(#c9c7ed35c0)"><path fill="#161617" d="M 367.613281 200.648438 C 367.613281 200.648438 363.105469 197.179688 354.984375 191.488281 C 346.910156 185.703125 335.050781 177.914062 320.621094 168.957031 C 306.222656 159.949219 288.949219 150.269531 270.039062 140.757812 C 260.636719 135.886719 250.648438 131.425781 240.535156 126.886719 C 230.367188 122.414062 219.917969 118.191406 209.320312 114.394531 C 198.730469 110.550781 188.054688 106.914062 177.375 103.992188 C 166.722656 100.949219 156.148438 98.308594 145.800781 96.226562 C 135.453125 94.164062 125.390625 92.441406 115.789062 91.246094 C 106.183594 90.109375 97.042969 89.230469 88.589844 89.046875 C 80.121094 88.605469 72.363281 88.847656 65.46875 88.796875 C 58.589844 89.089844 52.578125 89.457031 47.617188 89.804688 C 37.738281 90.851562 32.082031 91.445312 32.082031 91.445312 C 32.082031 91.445312 37.664062 90.300781 47.421875 88.289062 C 52.363281 87.5625 58.363281 86.722656 65.292969 85.886719 C 72.222656 85.355469 80.070312 84.5 88.664062 84.632812 C 97.25 84.421875 106.546875 84.859375 116.371094 85.542969 C 126.1875 86.292969 136.527344 87.507812 147.097656 89.433594 C 157.660156 91.371094 168.578125 93.59375 179.421875 96.707031 C 190.328125 99.578125 201.214844 103.191406 211.992188 107.027344 C 222.742188 110.976562 233.324219 115.347656 243.605469 119.957031 C 253.863281 124.625 263.792969 129.546875 273.207031 134.644531 C 292.136719 144.71875 308.914062 155.632812 323.027344 165.269531 C 337.164062 174.898438 348.179688 183.980469 355.898438 190.28125 C 363.539062 196.664062 367.613281 200.648438 367.613281 200.648438 " fill-opacity="1" fill-rule="nonzero"/></g></g></g></g><g clip-path="url(#3d247a2312)"><g clip-path="url(#895b5eda6e)"><g clip-path="url(#b95c125a76)"><g clip-path="url(#9eefb02b2a)"><path fill="#161617" d="M 37.714844 106.332031 C 37.714844 106.332031 35.703125 104.625 33.761719 101.617188 C 32.765625 100.121094 31.753906 98.300781 30.824219 96.292969 C 29.800781 94.332031 29.226562 92.042969 28.535156 89.785156 C 28.042969 87.484375 27.503906 85.199219 27.289062 83.003906 C 27.070312 81.941406 27.261719 80.753906 27.273438 79.707031 C 27.300781 78.65625 27.433594 77.652344 27.566406 76.730469 C 28.003906 73.050781 29.019531 70.785156 29.019531 70.785156 C 29.019531 70.785156 30.652344 73.03125 32.027344 76.195312 C 32.78125 77.773438 33.335938 79.5625 34.023438 81.542969 C 34.878906 83.488281 35.476562 85.652344 36.113281 87.796875 C 37.089844 92.148438 37.9375 96.597656 37.996094 100.167969 C 38.140625 103.707031 37.714844 106.332031 37.714844 106.332031 " fill-opacity="1" fill-rule="nonzero"/></g></g></g></g><g clip-path="url(#89260947d0)"><g clip-path="url(#724c7da950)"><g clip-path="url(#fc6b86e51e)"><g clip-path="url(#cfdfbd0651)"><path fill="#161617" d="M 358.273438 193.082031 C 358.273438 193.082031 338.523438 82.675781 308.699219 56.675781 C 308.699219 56.675781 217.128906 -38.503906 31.578125 86.261719 L 32.082031 91.445312 C 32.082031 91.445312 188.71875 76.082031 358.273438 193.082031 " fill-opacity="1" fill-rule="nonzero"/></g></g></g></g><g clip-path="url(#35064a3bef)"><g clip-path="url(#6e8d9d6d90)"><g clip-path="url(#ed9d82b378)"><g clip-path="url(#f48bd7f9ea)"><path fill="#ffffff" d="M 251.8125 101.125 C 300.960938 123.082031 333.464844 151.625 348.878906 167.21875 C 350.3125 173.613281 351.59375 179.726562 352.5625 184.453125 C 324.019531 165.410156 294.0625 148.835938 263.40625 135.140625 C 152.625 85.652344 60.320312 86.148438 37.257812 87.195312 C 45.136719 81.992188 53.300781 76.929688 62.085938 71.804688 C 130.570312 65.613281 194.40625 75.480469 251.8125 101.125 " fill-opacity="1" fill-rule="nonzero"/></g></g></g></g><g clip-path="url(#78659ffe66)"><g clip-path="url(#71a551f23e)"><g clip-path="url(#832a23dcd6)"><g clip-path="url(#2d6c32fb6f)"><path fill="#161617" d="M 32.082031 91.445312 C 32.082031 91.445312 133.679688 81.476562 261.808594 138.714844 C 292.773438 152.550781 325.265625 170.304688 358.273438 193.082031 C 358.273438 193.082031 355.734375 179.800781 352.453125 165.246094 C 334.460938 146.886719 301.582031 119.054688 253.414062 97.535156 C 204.878906 75.851562 140.824219 60.601562 60.882812 67.984375 C 51.367188 73.503906 41.636719 79.496094 31.578125 86.261719 Z M 51.261719 82.871094 C 55.171875 80.464844 59.171875 78.042969 63.304688 75.632812 C 130.796875 69.664062 193.65625 79.449219 250.207031 104.714844 C 297.945312 126.039062 329.78125 153.636719 345.308594 169.179688 C 345.820312 171.5 346.320312 173.78125 346.777344 175.964844 C 320.464844 158.984375 293.023438 144.078125 265.007812 131.5625 C 168.359375 88.386719 87.320312 82.808594 51.261719 82.871094 " fill-opacity="1" fill-rule="nonzero"/></g></g></g></g><g clip-path="url(#2c8a16be18)"><g clip-path="url(#9dc0bdf33e)"><g clip-path="url(#ec3a28d82d)"><g clip-path="url(#a82866c151)"><path fill="#f57e8e" d="M 309.675781 94.152344 C 309.675781 94.152344 254.90625 101.269531 229.351562 80.003906 C 229.351562 80.003906 243.136719 68.015625 237.261719 61.800781 C 237.261719 61.800781 201.296875 84.382812 180.976562 45.007812 C 180.976562 45.007812 283.585938 21.332031 309.675781 94.152344 " fill-opacity="1" fill-rule="nonzero"/></g></g></g></g><g clip-path="url(#279ac2c162)"><g clip-path="url(#bebfd6bd26)"><g clip-path="url(#fc1c7597b4)"><g clip-path="url(#8d61717cad)"><path fill="#ffffff" d="M 326.433594 93.800781 C 326.433594 93.800781 278.675781 9.703125 135.785156 40.113281 C 135.785156 40.113281 224.914062 -1.5 310.664062 62.847656 C 310.664062 62.847656 324.976562 76.269531 326.433594 93.800781 " fill-opacity="1" fill-rule="nonzero"/></g></g></g></g><g fill="#ff00ff" fill-opacity="1"><g transform="translate(91.581914, 271.633913)"><g><path d="M 9.933594 0.0898438 L 28.25 0.0898438 C 39.230469 0.0898438 44.742188 -5.375 44.742188 -16.3125 L 44.742188 -30.527344 C 44.742188 -41.691406 39.277344 -47.296875 28.339844 -47.296875 L 15.492188 -47.296875 L 15.492188 -56.410156 C 15.492188 -60.097656 13.667969 -61.96875 10.023438 -61.96875 C 6.378906 -61.96875 4.554688 -60.144531 4.554688 -56.546875 L 4.554688 -5.46875 C 4.554688 -1.777344 6.332031 0.0898438 9.933594 0.0898438 Z M 15.492188 -10.890625 L 15.492188 -36.359375 L 28.25 -36.359375 C 31.941406 -36.359375 33.808594 -34.492188 33.808594 -30.753906 L 33.808594 -16.175781 C 33.808594 -12.667969 31.941406 -10.890625 28.25 -10.890625 Z M 15.492188 -10.890625 "/></g></g></g><g fill="#ff00ff" fill-opacity="1"><g transform="translate(135.187161, 271.633913)"><g><path d="M 39.367188 -47.433594 C 35.675781 -47.433594 33.808594 -45.5625 33.808594 -41.875 L 33.808594 -10.980469 L 21.050781 -10.980469 C 17.359375 -10.980469 15.492188 -12.847656 15.492188 -16.585938 L 15.492188 -41.875 C 15.492188 -45.5625 13.667969 -47.433594 10.023438 -47.433594 C 6.378906 -47.433594 4.554688 -45.609375 4.554688 -41.964844 L 4.554688 -16.8125 C 4.554688 -5.648438 10.023438 -0.046875 20.960938 -0.046875 L 39.277344 0 C 42.921875 0 44.742188 -1.777344 44.742188 -5.375 L 44.742188 -41.875 C 44.742188 -45.5625 42.96875 -47.433594 39.367188 -47.433594 Z M 39.367188 -47.433594 "/></g></g></g><g fill="#ff00ff" fill-opacity="1"><g transform="translate(178.792408, 271.633913)"><g><path d="M 44.742188 -5.46875 L 44.742188 -56.546875 C 44.742188 -60.144531 42.921875 -61.96875 39.277344 -61.96875 C 35.632812 -61.96875 33.808594 -60.097656 33.808594 -56.410156 L 33.808594 -47.296875 L 20.960938 -47.296875 C 10.023438 -47.296875 4.554688 -41.691406 4.554688 -30.527344 L 4.554688 -16.3125 C 4.554688 -5.375 10.070312 0.0898438 21.050781 0.0898438 L 39.367188 0.0898438 C 42.96875 0.0898438 44.742188 -1.777344 44.742188 -5.46875 Z M 21.050781 -10.890625 C 17.359375 -10.890625 15.492188 -12.667969 15.492188 -16.175781 L 15.492188 -30.753906 C 15.492188 -34.492188 17.359375 -36.359375 21.050781 -36.359375 L 33.808594 -36.359375 L 33.808594 -10.890625 Z M 21.050781 -10.890625 "/></g></g></g><g fill="#ff00ff" fill-opacity="1"><g transform="translate(222.397659, 271.633913)"><g><path d="M 44.742188 -5.46875 L 44.742188 -56.546875 C 44.742188 -60.144531 42.921875 -61.96875 39.277344 -61.96875 C 35.632812 -61.96875 33.808594 -60.097656 33.808594 -56.410156 L 33.808594 -47.296875 L 20.960938 -47.296875 C 10.023438 -47.296875 4.554688 -41.691406 4.554688 -30.527344 L 4.554688 -16.3125 C 4.554688 -5.375 10.070312 0.0898438 21.050781 0.0898438 L 39.367188 0.0898438 C 42.96875 0.0898438 44.742188 -1.777344 44.742188 -5.46875 Z M 21.050781 -10.890625 C 17.359375 -10.890625 15.492188 -12.667969 15.492188 -16.175781 L 15.492188 -30.753906 C 15.492188 -34.492188 17.359375 -36.359375 21.050781 -36.359375 L 33.808594 -36.359375 L 33.808594 -10.890625 Z M 21.050781 -10.890625 "/></g></g></g><g fill="#ff00ff" fill-opacity="1"><g transform="translate(266.002901, 271.633913)"><g><path d="M 39.367188 -43.742188 C 35.675781 -43.742188 33.808594 -41.917969 33.808594 -38.226562 L 33.808594 -7.289062 L 21.050781 -7.289062 C 17.359375 -7.289062 15.492188 -9.160156 15.492188 -12.941406 L 15.492188 -38.226562 C 15.492188 -41.917969 13.667969 -43.742188 10.023438 -43.742188 C 6.378906 -43.742188 4.554688 -41.917969 4.554688 -38.273438 L 4.554688 -13.121094 C 4.554688 -1.960938 10.023438 3.644531 20.960938 3.644531 L 33.808594 3.644531 C 33.808594 6.195312 32.488281 7.472656 29.890625 7.425781 L 16.859375 7.425781 C 13.351562 7.425781 11.617188 9.25 11.664062 12.847656 C 11.710938 16.496094 13.441406 18.316406 16.949219 18.316406 L 28.339844 18.316406 C 39.277344 18.316406 44.742188 12.941406 44.742188 2.1875 L 44.742188 -38.226562 C 44.742188 -41.917969 42.96875 -43.742188 39.367188 -43.742188 Z M 39.367188 -43.742188 "/></g></g></g><g fill="#00ffff" fill-opacity="1"><g transform="translate(88.082199, 271.633913)"><g><path d="M 9.933594 0.0898438 L 28.25 0.0898438 C 39.230469 0.0898438 44.742188 -5.375 44.742188 -16.3125 L 44.742188 -30.527344 C 44.742188 -41.691406 39.277344 -47.296875 28.339844 -47.296875 L 15.492188 -47.296875 L 15.492188 -56.410156 C 15.492188 -60.097656 13.667969 -61.96875 10.023438 -61.96875 C 6.378906 -61.96875 4.554688 -60.144531 4.554688 -56.546875 L 4.554688 -5.46875 C 4.554688 -1.777344 6.332031 0.0898438 9.933594 0.0898438 Z M 15.492188 -10.890625 L 15.492188 -36.359375 L 28.25 -36.359375 C 31.941406 -36.359375 33.808594 -34.492188 33.808594 -30.753906 L 33.808594 -16.175781 C 33.808594 -12.667969 31.941406 -10.890625 28.25 -10.890625 Z M 15.492188 -10.890625 "/></g></g></g><g fill="#00ffff" fill-opacity="1"><g transform="translate(131.687445, 271.633913)"><g><path d="M 39.367188 -47.433594 C 35.675781 -47.433594 33.808594 -45.5625 33.808594 -41.875 L 33.808594 -10.980469 L 21.050781 -10.980469 C 17.359375 -10.980469 15.492188 -12.847656 15.492188 -16.585938 L 15.492188 -41.875 C 15.492188 -45.5625 13.667969 -47.433594 10.023438 -47.433594 C 6.378906 -47.433594 4.554688 -45.609375 4.554688 -41.964844 L 4.554688 -16.8125 C 4.554688 -5.648438 10.023438 -0.046875 20.960938 -0.046875 L 39.277344 0 C 42.921875 0 44.742188 -1.777344 44.742188 -5.375 L 44.742188 -41.875 C 44.742188 -45.5625 42.96875 -47.433594 39.367188 -47.433594 Z M 39.367188 -47.433594 "/></g></g></g><g fill="#00ffff" fill-opacity="1"><g transform="translate(175.292692, 271.633913)"><g><path d="M 44.742188 -5.46875 L 44.742188 -56.546875 C 44.742188 -60.144531 42.921875 -61.96875 39.277344 -61.96875 C 35.632812 -61.96875 33.808594 -60.097656 33.808594 -56.410156 L 33.808594 -47.296875 L 20.960938 -47.296875 C 10.023438 -47.296875 4.554688 -41.691406 4.554688 -30.527344 L 4.554688 -16.3125 C 4.554688 -5.375 10.070312 0.0898438 21.050781 0.0898438 L 39.367188 0.0898438 C 42.96875 0.0898438 44.742188 -1.777344 44.742188 -5.46875 Z M 21.050781 -10.890625 C 17.359375 -10.890625 15.492188 -12.667969 15.492188 -16.175781 L 15.492188 -30.753906 C 15.492188 -34.492188 17.359375 -36.359375 21.050781 -36.359375 L 33.808594 -36.359375 L 33.808594 -10.890625 Z M 21.050781 -10.890625 "/></g></g></g><g fill="#00ffff" fill-opacity="1"><g transform="translate(218.897943, 271.633913)"><g><path d="M 44.742188 -5.46875 L 44.742188 -56.546875 C 44.742188 -60.144531 42.921875 -61.96875 39.277344 -61.96875 C 35.632812 -61.96875 33.808594 -60.097656 33.808594 -56.410156 L 33.808594 -47.296875 L 20.960938 -47.296875 C 10.023438 -47.296875 4.554688 -41.691406 4.554688 -30.527344 L 4.554688 -16.3125 C 4.554688 -5.375 10.070312 0.0898438 21.050781 0.0898438 L 39.367188 0.0898438 C 42.96875 0.0898438 44.742188 -1.777344 44.742188 -5.46875 Z M 21.050781 -10.890625 C 17.359375 -10.890625 15.492188 -12.667969 15.492188 -16.175781 L 15.492188 -30.753906 C 15.492188 -34.492188 17.359375 -36.359375 21.050781 -36.359375 L 33.808594 -36.359375 L 33.808594 -10.890625 Z M 21.050781 -10.890625 "/></g></g></g><g fill="#00ffff" fill-opacity="1"><g transform="translate(262.503186, 271.633913)"><g><path d="M 39.367188 -43.742188 C 35.675781 -43.742188 33.808594 -41.917969 33.808594 -38.226562 L 33.808594 -7.289062 L 21.050781 -7.289062 C 17.359375 -7.289062 15.492188 -9.160156 15.492188 -12.941406 L 15.492188 -38.226562 C 15.492188 -41.917969 13.667969 -43.742188 10.023438 -43.742188 C 6.378906 -43.742188 4.554688 -41.917969 4.554688 -38.273438 L 4.554688 -13.121094 C 4.554688 -1.960938 10.023438 3.644531 20.960938 3.644531 L 33.808594 3.644531 C 33.808594 6.195312 32.488281 7.472656 29.890625 7.425781 L 16.859375 7.425781 C 13.351562 7.425781 11.617188 9.25 11.664062 12.847656 C 11.710938 16.496094 13.441406 18.316406 16.949219 18.316406 L 28.339844 18.316406 C 39.277344 18.316406 44.742188 12.941406 44.742188 2.1875 L 44.742188 -38.226562 C 44.742188 -41.917969 42.96875 -43.742188 39.367188 -43.742188 Z M 39.367188 -43.742188 "/></g></g></g><g fill="#38b6ff" fill-opacity="1"><g transform="translate(89.832055, 271.633913)"><g><path d="M 9.933594 0.0898438 L 28.25 0.0898438 C 39.230469 0.0898438 44.742188 -5.375 44.742188 -16.3125 L 44.742188 -30.527344 C 44.742188 -41.691406 39.277344 -47.296875 28.339844 -47.296875 L 15.492188 -47.296875 L 15.492188 -56.410156 C 15.492188 -60.097656 13.667969 -61.96875 10.023438 -61.96875 C 6.378906 -61.96875 4.554688 -60.144531 4.554688 -56.546875 L 4.554688 -5.46875 C 4.554688 -1.777344 6.332031 0.0898438 9.933594 0.0898438 Z M 15.492188 -10.890625 L 15.492188 -36.359375 L 28.25 -36.359375 C 31.941406 -36.359375 33.808594 -34.492188 33.808594 -30.753906 L 33.808594 -16.175781 C 33.808594 -12.667969 31.941406 -10.890625 28.25 -10.890625 Z M 15.492188 -10.890625 "/></g></g></g><g fill="#38b6ff" fill-opacity="1"><g transform="translate(133.437302, 271.633913)"><g><path d="M 39.367188 -47.433594 C 35.675781 -47.433594 33.808594 -45.5625 33.808594 -41.875 L 33.808594 -10.980469 L 21.050781 -10.980469 C 17.359375 -10.980469 15.492188 -12.847656 15.492188 -16.585938 L 15.492188 -41.875 C 15.492188 -45.5625 13.667969 -47.433594 10.023438 -47.433594 C 6.378906 -47.433594 4.554688 -45.609375 4.554688 -41.964844 L 4.554688 -16.8125 C 4.554688 -5.648438 10.023438 -0.046875 20.960938 -0.046875 L 39.277344 0 C 42.921875 0 44.742188 -1.777344 44.742188 -5.375 L 44.742188 -41.875 C 44.742188 -45.5625 42.96875 -47.433594 39.367188 -47.433594 Z M 39.367188 -47.433594 "/></g></g></g><g fill="#38b6ff" fill-opacity="1"><g transform="translate(177.042549, 271.633913)"><g><path d="M 44.742188 -5.46875 L 44.742188 -56.546875 C 44.742188 -60.144531 42.921875 -61.96875 39.277344 -61.96875 C 35.632812 -61.96875 33.808594 -60.097656 33.808594 -56.410156 L 33.808594 -47.296875 L 20.960938 -47.296875 C 10.023438 -47.296875 4.554688 -41.691406 4.554688 -30.527344 L 4.554688 -16.3125 C 4.554688 -5.375 10.070312 0.0898438 21.050781 0.0898438 L 39.367188 0.0898438 C 42.96875 0.0898438 44.742188 -1.777344 44.742188 -5.46875 Z M 21.050781 -10.890625 C 17.359375 -10.890625 15.492188 -12.667969 15.492188 -16.175781 L 15.492188 -30.753906 C 15.492188 -34.492188 17.359375 -36.359375 21.050781 -36.359375 L 33.808594 -36.359375 L 33.808594 -10.890625 Z M 21.050781 -10.890625 "/></g></g></g><g fill="#38b6ff" fill-opacity="1"><g transform="translate(220.6478, 271.633913)"><g><path d="M 44.742188 -5.46875 L 44.742188 -56.546875 C 44.742188 -60.144531 42.921875 -61.96875 39.277344 -61.96875 C 35.632812 -61.96875 33.808594 -60.097656 33.808594 -56.410156 L 33.808594 -47.296875 L 20.960938 -47.296875 C 10.023438 -47.296875 4.554688 -41.691406 4.554688 -30.527344 L 4.554688 -16.3125 C 4.554688 -5.375 10.070312 0.0898438 21.050781 0.0898438 L 39.367188 0.0898438 C 42.96875 0.0898438 44.742188 -1.777344 44.742188 -5.46875 Z M 21.050781 -10.890625 C 17.359375 -10.890625 15.492188 -12.667969 15.492188 -16.175781 L 15.492188 -30.753906 C 15.492188 -34.492188 17.359375 -36.359375 21.050781 -36.359375 L 33.808594 -36.359375 L 33.808594 -10.890625 Z M 21.050781 -10.890625 "/></g></g></g><g fill="#38b6ff" fill-opacity="1"><g transform="translate(264.253042, 271.633913)"><g><path d="M 39.367188 -43.742188 C 35.675781 -43.742188 33.808594 -41.917969 33.808594 -38.226562 L 33.808594 -7.289062 L 21.050781 -7.289062 C 17.359375 -7.289062 15.492188 -9.160156 15.492188 -12.941406 L 15.492188 -38.226562 C 15.492188 -41.917969 13.667969 -43.742188 10.023438 -43.742188 C 6.378906 -43.742188 4.554688 -41.917969 4.554688 -38.273438 L 4.554688 -13.121094 C 4.554688 -1.960938 10.023438 3.644531 20.960938 3.644531 L 33.808594 3.644531 C 33.808594 6.195312 32.488281 7.472656 29.890625 7.425781 L 16.859375 7.425781 C 13.351562 7.425781 11.617188 9.25 11.664062 12.847656 C 11.710938 16.496094 13.441406 18.316406 16.949219 18.316406 L 28.339844 18.316406 C 39.277344 18.316406 44.742188 12.941406 44.742188 2.1875 L 44.742188 -38.226562 C 44.742188 -41.917969 42.96875 -43.742188 39.367188 -43.742188 Z M 39.367188 -43.742188 "/></g></g></g><g fill="#ff00ff" fill-opacity="1"><g transform="translate(12.307655, 205.056874)"><g><path d="M 67.320312 -8.261719 L 67.320312 -63.257812 C 67.320312 -68.695312 64.566406 -71.378906 59.058594 -71.378906 L 31.664062 -71.449219 C 15.144531 -71.449219 6.882812 -62.984375 6.882812 -46.117188 L 6.882812 -8.121094 C 6.882812 -2.617188 9.636719 0.136719 15.144531 0.136719 C 20.648438 0.136719 23.402344 -2.683594 23.402344 -8.261719 L 23.472656 -22.027344 L 50.800781 -21.957031 L 50.800781 -8.261719 C 50.800781 -2.683594 53.621094 0.136719 59.265625 0.136719 C 64.632812 0.136719 67.320312 -2.683594 67.320312 -8.261719 Z M 23.402344 -38.546875 L 23.402344 -46.460938 C 23.402344 -52.105469 26.226562 -54.929688 31.800781 -54.929688 L 50.800781 -54.929688 L 50.800781 -38.546875 Z M 23.402344 -38.546875 "/></g></g></g><g fill="#ff00ff" fill-opacity="1"><g transform="translate(79.732931, 205.056874)"><g><path d="M 61.949219 -49.558594 L 61.949219 -63.257812 C 61.949219 -68.695312 59.195312 -71.378906 53.691406 -71.378906 L 31.664062 -71.449219 C 15.144531 -71.449219 6.882812 -62.984375 6.882812 -46.117188 L 6.882812 -8.121094 C 6.882812 -2.617188 9.636719 0.136719 15.144531 0.136719 C 20.648438 0.136719 23.402344 -2.683594 23.402344 -8.261719 L 23.402344 -46.460938 C 23.402344 -52.105469 26.226562 -54.929688 31.800781 -54.929688 L 45.429688 -54.929688 L 45.429688 -49.558594 C 45.429688 -43.984375 48.253906 -41.164062 53.828125 -41.164062 C 59.265625 -41.164062 61.949219 -43.984375 61.949219 -49.558594 Z M 61.949219 -49.558594 "/></g></g></g><g fill="#ff00ff" fill-opacity="1"><g transform="translate(141.582969, 205.056874)"><g><path d="M 67.320312 -8.261719 L 67.320312 -63.257812 C 67.320312 -68.695312 64.566406 -71.378906 59.058594 -71.378906 L 31.664062 -71.449219 C 15.144531 -71.449219 6.882812 -62.984375 6.882812 -46.117188 L 6.882812 -8.121094 C 6.882812 -2.617188 9.636719 0.136719 15.144531 0.136719 C 20.648438 0.136719 23.402344 -2.683594 23.402344 -8.261719 L 23.472656 -22.027344 L 50.800781 -21.957031 L 50.800781 -8.261719 C 50.800781 -2.683594 53.621094 0.136719 59.265625 0.136719 C 64.632812 0.136719 67.320312 -2.683594 67.320312 -8.261719 Z M 23.402344 -38.546875 L 23.402344 -46.460938 C 23.402344 -52.105469 26.226562 -54.929688 31.800781 -54.929688 L 50.800781 -54.929688 L 50.800781 -38.546875 Z M 23.402344 -38.546875 "/></g></g></g><g fill="#ff00ff" fill-opacity="1"><g transform="translate(209.008245, 205.056874)"><g><path d="M 15.003906 0.136719 L 42.675781 0.136719 C 59.265625 0.136719 67.59375 -8.121094 67.59375 -24.640625 L 67.59375 -46.117188 C 67.59375 -62.984375 59.335938 -71.449219 42.8125 -71.449219 L 23.402344 -71.449219 L 23.402344 -85.214844 C 23.402344 -90.792969 20.648438 -93.613281 15.144531 -93.613281 C 9.636719 -93.613281 6.882812 -90.859375 6.882812 -85.421875 L 6.882812 -8.261719 C 6.882812 -2.683594 9.566406 0.136719 15.003906 0.136719 Z M 23.402344 -16.449219 L 23.402344 -54.929688 L 42.675781 -54.929688 C 48.253906 -54.929688 51.074219 -52.105469 51.074219 -46.460938 L 51.074219 -24.4375 C 51.074219 -19.136719 48.253906 -16.449219 42.675781 -16.449219 Z M 23.402344 -16.449219 "/></g></g></g><g fill="#ff00ff" fill-opacity="1"><g transform="translate(276.433522, 205.056874)"><g><path d="M 59.472656 -66.078125 C 53.894531 -66.078125 51.074219 -63.328125 51.074219 -57.75 L 51.074219 -11.011719 L 31.800781 -11.011719 C 26.226562 -11.011719 23.402344 -13.835938 23.402344 -19.546875 L 23.402344 -57.75 C 23.402344 -63.328125 20.648438 -66.078125 15.144531 -66.078125 C 9.636719 -66.078125 6.882812 -63.328125 6.882812 -57.820312 L 6.882812 -19.824219 C 6.882812 -2.960938 15.144531 5.507812 31.664062 5.507812 L 51.074219 5.507812 C 51.074219 9.359375 49.078125 11.289062 45.15625 11.21875 L 25.46875 11.21875 C 20.167969 11.21875 17.550781 13.972656 17.621094 19.410156 C 17.691406 24.917969 20.304688 27.671875 25.605469 27.671875 L 42.8125 27.671875 C 59.335938 27.671875 67.59375 19.546875 67.59375 3.304688 L 67.59375 -57.75 C 67.59375 -63.328125 64.910156 -66.078125 59.472656 -66.078125 Z M 59.472656 -66.078125 "/></g></g></g><g fill="#00ffff" fill-opacity="1"><g transform="translate(7.020873, 205.056874)"><g><path d="M 67.320312 -8.261719 L 67.320312 -63.257812 C 67.320312 -68.695312 64.566406 -71.378906 59.058594 -71.378906 L 31.664062 -71.449219 C 15.144531 -71.449219 6.882812 -62.984375 6.882812 -46.117188 L 6.882812 -8.121094 C 6.882812 -2.617188 9.636719 0.136719 15.144531 0.136719 C 20.648438 0.136719 23.402344 -2.683594 23.402344 -8.261719 L 23.472656 -22.027344 L 50.800781 -21.957031 L 50.800781 -8.261719 C 50.800781 -2.683594 53.621094 0.136719 59.265625 0.136719 C 64.632812 0.136719 67.320312 -2.683594 67.320312 -8.261719 Z M 23.402344 -38.546875 L 23.402344 -46.460938 C 23.402344 -52.105469 26.226562 -54.929688 31.800781 -54.929688 L 50.800781 -54.929688 L 50.800781 -38.546875 Z M 23.402344 -38.546875 "/></g></g></g><g fill="#00ffff" fill-opacity="1"><g transform="translate(74.446149, 205.056874)"><g><path d="M 61.949219 -49.558594 L 61.949219 -63.257812 C 61.949219 -68.695312 59.195312 -71.378906 53.691406 -71.378906 L 31.664062 -71.449219 C 15.144531 -71.449219 6.882812 -62.984375 6.882812 -46.117188 L 6.882812 -8.121094 C 6.882812 -2.617188 9.636719 0.136719 15.144531 0.136719 C 20.648438 0.136719 23.402344 -2.683594 23.402344 -8.261719 L 23.402344 -46.460938 C 23.402344 -52.105469 26.226562 -54.929688 31.800781 -54.929688 L 45.429688 -54.929688 L 45.429688 -49.558594 C 45.429688 -43.984375 48.253906 -41.164062 53.828125 -41.164062 C 59.265625 -41.164062 61.949219 -43.984375 61.949219 -49.558594 Z M 61.949219 -49.558594 "/></g></g></g><g fill="#00ffff" fill-opacity="1"><g transform="translate(136.296187, 205.056874)"><g><path d="M 67.320312 -8.261719 L 67.320312 -63.257812 C 67.320312 -68.695312 64.566406 -71.378906 59.058594 -71.378906 L 31.664062 -71.449219 C 15.144531 -71.449219 6.882812 -62.984375 6.882812 -46.117188 L 6.882812 -8.121094 C 6.882812 -2.617188 9.636719 0.136719 15.144531 0.136719 C 20.648438 0.136719 23.402344 -2.683594 23.402344 -8.261719 L 23.472656 -22.027344 L 50.800781 -21.957031 L 50.800781 -8.261719 C 50.800781 -2.683594 53.621094 0.136719 59.265625 0.136719 C 64.632812 0.136719 67.320312 -2.683594 67.320312 -8.261719 Z M 23.402344 -38.546875 L 23.402344 -46.460938 C 23.402344 -52.105469 26.226562 -54.929688 31.800781 -54.929688 L 50.800781 -54.929688 L 50.800781 -38.546875 Z M 23.402344 -38.546875 "/></g></g></g><g fill="#00ffff" fill-opacity="1"><g transform="translate(203.721463, 205.056874)"><g><path d="M 15.003906 0.136719 L 42.675781 0.136719 C 59.265625 0.136719 67.59375 -8.121094 67.59375 -24.640625 L 67.59375 -46.117188 C 67.59375 -62.984375 59.335938 -71.449219 42.8125 -71.449219 L 23.402344 -71.449219 L 23.402344 -85.214844 C 23.402344 -90.792969 20.648438 -93.613281 15.144531 -93.613281 C 9.636719 -93.613281 6.882812 -90.859375 6.882812 -85.421875 L 6.882812 -8.261719 C 6.882812 -2.683594 9.566406 0.136719 15.003906 0.136719 Z M 23.402344 -16.449219 L 23.402344 -54.929688 L 42.675781 -54.929688 C 48.253906 -54.929688 51.074219 -52.105469 51.074219 -46.460938 L 51.074219 -24.4375 C 51.074219 -19.136719 48.253906 -16.449219 42.675781 -16.449219 Z M 23.402344 -16.449219 "/></g></g></g><g fill="#00ffff" fill-opacity="1"><g transform="translate(271.146739, 205.056874)"><g><path d="M 59.472656 -66.078125 C 53.894531 -66.078125 51.074219 -63.328125 51.074219 -57.75 L 51.074219 -11.011719 L 31.800781 -11.011719 C 26.226562 -11.011719 23.402344 -13.835938 23.402344 -19.546875 L 23.402344 -57.75 C 23.402344 -63.328125 20.648438 -66.078125 15.144531 -66.078125 C 9.636719 -66.078125 6.882812 -63.328125 6.882812 -57.820312 L 6.882812 -19.824219 C 6.882812 -2.960938 15.144531 5.507812 31.664062 5.507812 L 51.074219 5.507812 C 51.074219 9.359375 49.078125 11.289062 45.15625 11.21875 L 25.46875 11.21875 C 20.167969 11.21875 17.550781 13.972656 17.621094 19.410156 C 17.691406 24.917969 20.304688 27.671875 25.605469 27.671875 L 42.8125 27.671875 C 59.335938 27.671875 67.59375 19.546875 67.59375 3.304688 L 67.59375 -57.75 C 67.59375 -63.328125 64.910156 -66.078125 59.472656 -66.078125 Z M 59.472656 -66.078125 "/></g></g></g><g fill="#5e17eb" fill-opacity="1"><g transform="translate(9.664264, 205.056874)"><g><path d="M 67.320312 -8.261719 L 67.320312 -63.257812 C 67.320312 -68.695312 64.566406 -71.378906 59.058594 -71.378906 L 31.664062 -71.449219 C 15.144531 -71.449219 6.882812 -62.984375 6.882812 -46.117188 L 6.882812 -8.121094 C 6.882812 -2.617188 9.636719 0.136719 15.144531 0.136719 C 20.648438 0.136719 23.402344 -2.683594 23.402344 -8.261719 L 23.472656 -22.027344 L 50.800781 -21.957031 L 50.800781 -8.261719 C 50.800781 -2.683594 53.621094 0.136719 59.265625 0.136719 C 64.632812 0.136719 67.320312 -2.683594 67.320312 -8.261719 Z M 23.402344 -38.546875 L 23.402344 -46.460938 C 23.402344 -52.105469 26.226562 -54.929688 31.800781 -54.929688 L 50.800781 -54.929688 L 50.800781 -38.546875 Z M 23.402344 -38.546875 "/></g></g></g><g fill="#5e17eb" fill-opacity="1"><g transform="translate(77.08954, 205.056874)"><g><path d="M 61.949219 -49.558594 L 61.949219 -63.257812 C 61.949219 -68.695312 59.195312 -71.378906 53.691406 -71.378906 L 31.664062 -71.449219 C 15.144531 -71.449219 6.882812 -62.984375 6.882812 -46.117188 L 6.882812 -8.121094 C 6.882812 -2.617188 9.636719 0.136719 15.144531 0.136719 C 20.648438 0.136719 23.402344 -2.683594 23.402344 -8.261719 L 23.402344 -46.460938 C 23.402344 -52.105469 26.226562 -54.929688 31.800781 -54.929688 L 45.429688 -54.929688 L 45.429688 -49.558594 C 45.429688 -43.984375 48.253906 -41.164062 53.828125 -41.164062 C 59.265625 -41.164062 61.949219 -43.984375 61.949219 -49.558594 Z M 61.949219 -49.558594 "/></g></g></g><g fill="#5e17eb" fill-opacity="1"><g transform="translate(138.939578, 205.056874)"><g><path d="M 67.320312 -8.261719 L 67.320312 -63.257812 C 67.320312 -68.695312 64.566406 -71.378906 59.058594 -71.378906 L 31.664062 -71.449219 C 15.144531 -71.449219 6.882812 -62.984375 6.882812 -46.117188 L 6.882812 -8.121094 C 6.882812 -2.617188 9.636719 0.136719 15.144531 0.136719 C 20.648438 0.136719 23.402344 -2.683594 23.402344 -8.261719 L 23.472656 -22.027344 L 50.800781 -21.957031 L 50.800781 -8.261719 C 50.800781 -2.683594 53.621094 0.136719 59.265625 0.136719 C 64.632812 0.136719 67.320312 -2.683594 67.320312 -8.261719 Z M 23.402344 -38.546875 L 23.402344 -46.460938 C 23.402344 -52.105469 26.226562 -54.929688 31.800781 -54.929688 L 50.800781 -54.929688 L 50.800781 -38.546875 Z M 23.402344 -38.546875 "/></g></g></g><g fill="#5e17eb" fill-opacity="1"><g transform="translate(206.364854, 205.056874)"><g><path d="M 15.003906 0.136719 L 42.675781 0.136719 C 59.265625 0.136719 67.59375 -8.121094 67.59375 -24.640625 L 67.59375 -46.117188 C 67.59375 -62.984375 59.335938 -71.449219 42.8125 -71.449219 L 23.402344 -71.449219 L 23.402344 -85.214844 C 23.402344 -90.792969 20.648438 -93.613281 15.144531 -93.613281 C 9.636719 -93.613281 6.882812 -90.859375 6.882812 -85.421875 L 6.882812 -8.261719 C 6.882812 -2.683594 9.566406 0.136719 15.003906 0.136719 Z M 23.402344 -16.449219 L 23.402344 -54.929688 L 42.675781 -54.929688 C 48.253906 -54.929688 51.074219 -52.105469 51.074219 -46.460938 L 51.074219 -24.4375 C 51.074219 -19.136719 48.253906 -16.449219 42.675781 -16.449219 Z M 23.402344 -16.449219 "/></g></g></g><g fill="#5e17eb" fill-opacity="1"><g transform="translate(273.790131, 205.056874)"><g><path d="M 59.472656 -66.078125 C 53.894531 -66.078125 51.074219 -63.328125 51.074219 -57.75 L 51.074219 -11.011719 L 31.800781 -11.011719 C 26.226562 -11.011719 23.402344 -13.835938 23.402344 -19.546875 L 23.402344 -57.75 C 23.402344 -63.328125 20.648438 -66.078125 15.144531 -66.078125 C 9.636719 -66.078125 6.882812 -63.328125 6.882812 -57.820312 L 6.882812 -19.824219 C 6.882812 -2.960938 15.144531 5.507812 31.664062 5.507812 L 51.074219 5.507812 C 51.074219 9.359375 49.078125 11.289062 45.15625 11.21875 L 25.46875 11.21875 C 20.167969 11.21875 17.550781 13.972656 17.621094 19.410156 C 17.691406 24.917969 20.304688 27.671875 25.605469 27.671875 L 42.8125 27.671875 C 59.335938 27.671875 67.59375 19.546875 67.59375 3.304688 L 67.59375 -57.75 C 67.59375 -63.328125 64.910156 -66.078125 59.472656 -66.078125 Z M 59.472656 -66.078125 "/></g></g></g></svg>