<svg xmlns="http://www.w3.org/2000/svg" xmlns:xlink="http://www.w3.org/1999/xlink" width="1000" zoomAndPan="magnify" viewBox="0 0 750 225" height="300" preserveAspectRatio="xMidYMid meet" version="1.0"><defs><g/></defs><g fill="#ff00ff" fill-opacity="1"><g transform="translate(378.733899, 157.417158)"><g><path d="M 16.242188 0.148438 L 46.195312 0.148438 C 64.152344 0.148438 73.167969 -8.792969 73.167969 -26.671875 L 73.167969 -49.921875 C 73.167969 -68.175781 64.226562 -77.339844 46.34375 -77.339844 L 25.332031 -77.339844 L 25.332031 -92.242188 C 25.332031 -98.277344 22.351562 -101.332031 16.390625 -101.332031 C 10.429688 -101.332031 7.449219 -98.351562 7.449219 -92.464844 L 7.449219 -8.941406 C 7.449219 -2.90625 10.355469 0.148438 16.242188 0.148438 Z M 25.332031 -17.808594 L 25.332031 -59.457031 L 46.195312 -59.457031 C 52.230469 -59.457031 55.285156 -56.402344 55.285156 -50.292969 L 55.285156 -26.449219 C 55.285156 -20.714844 52.230469 -17.808594 46.195312 -17.808594 Z M 25.332031 -17.808594 "/></g></g></g><g fill="#ff00ff" fill-opacity="1"><g transform="translate(450.041142, 157.417158)"><g><path d="M 64.375 -77.5625 C 58.339844 -77.5625 55.285156 -74.507812 55.285156 -68.472656 L 55.285156 -17.957031 L 34.421875 -17.957031 C 28.386719 -17.957031 25.332031 -21.011719 25.332031 -27.121094 L 25.332031 -68.472656 C 25.332031 -74.507812 22.351562 -77.5625 16.390625 -77.5625 C 10.429688 -77.5625 7.449219 -74.582031 7.449219 -68.621094 L 7.449219 -27.492188 C 7.449219 -9.238281 16.390625 -0.0742188 34.273438 -0.0742188 L 64.226562 0 C 70.1875 0 73.167969 -2.90625 73.167969 -8.792969 L 73.167969 -68.472656 C 73.167969 -74.507812 70.261719 -77.5625 64.375 -77.5625 Z M 64.375 -77.5625 "/></g></g></g><g fill="#ff00ff" fill-opacity="1"><g transform="translate(521.348384, 157.417158)"><g><path d="M 73.167969 -8.941406 L 73.167969 -92.464844 C 73.167969 -98.351562 70.1875 -101.332031 64.226562 -101.332031 C 58.265625 -101.332031 55.285156 -98.277344 55.285156 -92.242188 L 55.285156 -77.339844 L 34.273438 -77.339844 C 16.390625 -77.339844 7.449219 -68.175781 7.449219 -49.921875 L 7.449219 -26.671875 C 7.449219 -8.792969 16.464844 0.148438 34.421875 0.148438 L 64.375 0.148438 C 70.261719 0.148438 73.167969 -2.90625 73.167969 -8.941406 Z M 34.421875 -17.808594 C 28.386719 -17.808594 25.332031 -20.714844 25.332031 -26.449219 L 25.332031 -50.292969 C 25.332031 -56.402344 28.386719 -59.457031 34.421875 -59.457031 L 55.285156 -59.457031 L 55.285156 -17.808594 Z M 34.421875 -17.808594 "/></g></g></g><g fill="#ff00ff" fill-opacity="1"><g transform="translate(592.655631, 157.417158)"><g><path d="M 73.167969 -8.941406 L 73.167969 -92.464844 C 73.167969 -98.351562 70.1875 -101.332031 64.226562 -101.332031 C 58.265625 -101.332031 55.285156 -98.277344 55.285156 -92.242188 L 55.285156 -77.339844 L 34.273438 -77.339844 C 16.390625 -77.339844 7.449219 -68.175781 7.449219 -49.921875 L 7.449219 -26.671875 C 7.449219 -8.792969 16.464844 0.148438 34.421875 0.148438 L 64.375 0.148438 C 70.261719 0.148438 73.167969 -2.90625 73.167969 -8.941406 Z M 34.421875 -17.808594 C 28.386719 -17.808594 25.332031 -20.714844 25.332031 -26.449219 L 25.332031 -50.292969 C 25.332031 -56.402344 28.386719 -59.457031 34.421875 -59.457031 L 55.285156 -59.457031 L 55.285156 -17.808594 Z M 34.421875 -17.808594 "/></g></g></g><g fill="#ff00ff" fill-opacity="1"><g transform="translate(663.962867, 157.417158)"><g><path d="M 64.375 -71.527344 C 58.339844 -71.527344 55.285156 -68.546875 55.285156 -62.511719 L 55.285156 -11.921875 L 34.421875 -11.921875 C 28.386719 -11.921875 25.332031 -14.976562 25.332031 -21.160156 L 25.332031 -62.511719 C 25.332031 -68.546875 22.351562 -71.527344 16.390625 -71.527344 C 10.429688 -71.527344 7.449219 -68.546875 7.449219 -62.585938 L 7.449219 -21.457031 C 7.449219 -3.203125 16.390625 5.960938 34.273438 5.960938 L 55.285156 5.960938 C 55.285156 10.132812 53.125 12.21875 48.878906 12.144531 L 27.566406 12.144531 C 21.832031 12.144531 19 15.125 19.074219 21.011719 C 19.148438 26.972656 21.980469 29.953125 27.71875 29.953125 L 46.34375 29.953125 C 64.226562 29.953125 73.167969 21.160156 73.167969 3.578125 L 73.167969 -62.511719 C 73.167969 -68.546875 70.261719 -71.527344 64.375 -71.527344 Z M 64.375 -71.527344 "/></g></g></g><g fill="#00ffff" fill-opacity="1"><g transform="translate(373.011517, 157.417158)"><g><path d="M 16.242188 0.148438 L 46.195312 0.148438 C 64.152344 0.148438 73.167969 -8.792969 73.167969 -26.671875 L 73.167969 -49.921875 C 73.167969 -68.175781 64.226562 -77.339844 46.34375 -77.339844 L 25.332031 -77.339844 L 25.332031 -92.242188 C 25.332031 -98.277344 22.351562 -101.332031 16.390625 -101.332031 C 10.429688 -101.332031 7.449219 -98.351562 7.449219 -92.464844 L 7.449219 -8.941406 C 7.449219 -2.90625 10.355469 0.148438 16.242188 0.148438 Z M 25.332031 -17.808594 L 25.332031 -59.457031 L 46.195312 -59.457031 C 52.230469 -59.457031 55.285156 -56.402344 55.285156 -50.292969 L 55.285156 -26.449219 C 55.285156 -20.714844 52.230469 -17.808594 46.195312 -17.808594 Z M 25.332031 -17.808594 "/></g></g></g><g fill="#00ffff" fill-opacity="1"><g transform="translate(444.318759, 157.417158)"><g><path d="M 64.375 -77.5625 C 58.339844 -77.5625 55.285156 -74.507812 55.285156 -68.472656 L 55.285156 -17.957031 L 34.421875 -17.957031 C 28.386719 -17.957031 25.332031 -21.011719 25.332031 -27.121094 L 25.332031 -68.472656 C 25.332031 -74.507812 22.351562 -77.5625 16.390625 -77.5625 C 10.429688 -77.5625 7.449219 -74.582031 7.449219 -68.621094 L 7.449219 -27.492188 C 7.449219 -9.238281 16.390625 -0.0742188 34.273438 -0.0742188 L 64.226562 0 C 70.1875 0 73.167969 -2.90625 73.167969 -8.792969 L 73.167969 -68.472656 C 73.167969 -74.507812 70.261719 -77.5625 64.375 -77.5625 Z M 64.375 -77.5625 "/></g></g></g><g fill="#00ffff" fill-opacity="1"><g transform="translate(515.626001, 157.417158)"><g><path d="M 73.167969 -8.941406 L 73.167969 -92.464844 C 73.167969 -98.351562 70.1875 -101.332031 64.226562 -101.332031 C 58.265625 -101.332031 55.285156 -98.277344 55.285156 -92.242188 L 55.285156 -77.339844 L 34.273438 -77.339844 C 16.390625 -77.339844 7.449219 -68.175781 7.449219 -49.921875 L 7.449219 -26.671875 C 7.449219 -8.792969 16.464844 0.148438 34.421875 0.148438 L 64.375 0.148438 C 70.261719 0.148438 73.167969 -2.90625 73.167969 -8.941406 Z M 34.421875 -17.808594 C 28.386719 -17.808594 25.332031 -20.714844 25.332031 -26.449219 L 25.332031 -50.292969 C 25.332031 -56.402344 28.386719 -59.457031 34.421875 -59.457031 L 55.285156 -59.457031 L 55.285156 -17.808594 Z M 34.421875 -17.808594 "/></g></g></g><g fill="#00ffff" fill-opacity="1"><g transform="translate(586.933249, 157.417158)"><g><path d="M 73.167969 -8.941406 L 73.167969 -92.464844 C 73.167969 -98.351562 70.1875 -101.332031 64.226562 -101.332031 C 58.265625 -101.332031 55.285156 -98.277344 55.285156 -92.242188 L 55.285156 -77.339844 L 34.273438 -77.339844 C 16.390625 -77.339844 7.449219 -68.175781 7.449219 -49.921875 L 7.449219 -26.671875 C 7.449219 -8.792969 16.464844 0.148438 34.421875 0.148438 L 64.375 0.148438 C 70.261719 0.148438 73.167969 -2.90625 73.167969 -8.941406 Z M 34.421875 -17.808594 C 28.386719 -17.808594 25.332031 -20.714844 25.332031 -26.449219 L 25.332031 -50.292969 C 25.332031 -56.402344 28.386719 -59.457031 34.421875 -59.457031 L 55.285156 -59.457031 L 55.285156 -17.808594 Z M 34.421875 -17.808594 "/></g></g></g><g fill="#00ffff" fill-opacity="1"><g transform="translate(658.240485, 157.417158)"><g><path d="M 64.375 -71.527344 C 58.339844 -71.527344 55.285156 -68.546875 55.285156 -62.511719 L 55.285156 -11.921875 L 34.421875 -11.921875 C 28.386719 -11.921875 25.332031 -14.976562 25.332031 -21.160156 L 25.332031 -62.511719 C 25.332031 -68.546875 22.351562 -71.527344 16.390625 -71.527344 C 10.429688 -71.527344 7.449219 -68.546875 7.449219 -62.585938 L 7.449219 -21.457031 C 7.449219 -3.203125 16.390625 5.960938 34.273438 5.960938 L 55.285156 5.960938 C 55.285156 10.132812 53.125 12.21875 48.878906 12.144531 L 27.566406 12.144531 C 21.832031 12.144531 19 15.125 19.074219 21.011719 C 19.148438 26.972656 21.980469 29.953125 27.71875 29.953125 L 46.34375 29.953125 C 64.226562 29.953125 73.167969 21.160156 73.167969 3.578125 L 73.167969 -62.511719 C 73.167969 -68.546875 70.261719 -71.527344 64.375 -71.527344 Z M 64.375 -71.527344 "/></g></g></g><g fill="#38b6ff" fill-opacity="1"><g transform="translate(375.872708, 157.417158)"><g><path d="M 16.242188 0.148438 L 46.195312 0.148438 C 64.152344 0.148438 73.167969 -8.792969 73.167969 -26.671875 L 73.167969 -49.921875 C 73.167969 -68.175781 64.226562 -77.339844 46.34375 -77.339844 L 25.332031 -77.339844 L 25.332031 -92.242188 C 25.332031 -98.277344 22.351562 -101.332031 16.390625 -101.332031 C 10.429688 -101.332031 7.449219 -98.351562 7.449219 -92.464844 L 7.449219 -8.941406 C 7.449219 -2.90625 10.355469 0.148438 16.242188 0.148438 Z M 25.332031 -17.808594 L 25.332031 -59.457031 L 46.195312 -59.457031 C 52.230469 -59.457031 55.285156 -56.402344 55.285156 -50.292969 L 55.285156 -26.449219 C 55.285156 -20.714844 52.230469 -17.808594 46.195312 -17.808594 Z M 25.332031 -17.808594 "/></g></g></g><g fill="#38b6ff" fill-opacity="1"><g transform="translate(447.17995, 157.417158)"><g><path d="M 64.375 -77.5625 C 58.339844 -77.5625 55.285156 -74.507812 55.285156 -68.472656 L 55.285156 -17.957031 L 34.421875 -17.957031 C 28.386719 -17.957031 25.332031 -21.011719 25.332031 -27.121094 L 25.332031 -68.472656 C 25.332031 -74.507812 22.351562 -77.5625 16.390625 -77.5625 C 10.429688 -77.5625 7.449219 -74.582031 7.449219 -68.621094 L 7.449219 -27.492188 C 7.449219 -9.238281 16.390625 -0.0742188 34.273438 -0.0742188 L 64.226562 0 C 70.1875 0 73.167969 -2.90625 73.167969 -8.792969 L 73.167969 -68.472656 C 73.167969 -74.507812 70.261719 -77.5625 64.375 -77.5625 Z M 64.375 -77.5625 "/></g></g></g><g fill="#38b6ff" fill-opacity="1"><g transform="translate(518.487193, 157.417158)"><g><path d="M 73.167969 -8.941406 L 73.167969 -92.464844 C 73.167969 -98.351562 70.1875 -101.332031 64.226562 -101.332031 C 58.265625 -101.332031 55.285156 -98.277344 55.285156 -92.242188 L 55.285156 -77.339844 L 34.273438 -77.339844 C 16.390625 -77.339844 7.449219 -68.175781 7.449219 -49.921875 L 7.449219 -26.671875 C 7.449219 -8.792969 16.464844 0.148438 34.421875 0.148438 L 64.375 0.148438 C 70.261719 0.148438 73.167969 -2.90625 73.167969 -8.941406 Z M 34.421875 -17.808594 C 28.386719 -17.808594 25.332031 -20.714844 25.332031 -26.449219 L 25.332031 -50.292969 C 25.332031 -56.402344 28.386719 -59.457031 34.421875 -59.457031 L 55.285156 -59.457031 L 55.285156 -17.808594 Z M 34.421875 -17.808594 "/></g></g></g><g fill="#38b6ff" fill-opacity="1"><g transform="translate(589.79444, 157.417158)"><g><path d="M 73.167969 -8.941406 L 73.167969 -92.464844 C 73.167969 -98.351562 70.1875 -101.332031 64.226562 -101.332031 C 58.265625 -101.332031 55.285156 -98.277344 55.285156 -92.242188 L 55.285156 -77.339844 L 34.273438 -77.339844 C 16.390625 -77.339844 7.449219 -68.175781 7.449219 -49.921875 L 7.449219 -26.671875 C 7.449219 -8.792969 16.464844 0.148438 34.421875 0.148438 L 64.375 0.148438 C 70.261719 0.148438 73.167969 -2.90625 73.167969 -8.941406 Z M 34.421875 -17.808594 C 28.386719 -17.808594 25.332031 -20.714844 25.332031 -26.449219 L 25.332031 -50.292969 C 25.332031 -56.402344 28.386719 -59.457031 34.421875 -59.457031 L 55.285156 -59.457031 L 55.285156 -17.808594 Z M 34.421875 -17.808594 "/></g></g></g><g fill="#38b6ff" fill-opacity="1"><g transform="translate(661.101676, 157.417158)"><g><path d="M 64.375 -71.527344 C 58.339844 -71.527344 55.285156 -68.546875 55.285156 -62.511719 L 55.285156 -11.921875 L 34.421875 -11.921875 C 28.386719 -11.921875 25.332031 -14.976562 25.332031 -21.160156 L 25.332031 -62.511719 C 25.332031 -68.546875 22.351562 -71.527344 16.390625 -71.527344 C 10.429688 -71.527344 7.449219 -68.546875 7.449219 -62.585938 L 7.449219 -21.457031 C 7.449219 -3.203125 16.390625 5.960938 34.273438 5.960938 L 55.285156 5.960938 C 55.285156 10.132812 53.125 12.21875 48.878906 12.144531 L 27.566406 12.144531 C 21.832031 12.144531 19 15.125 19.074219 21.011719 C 19.148438 26.972656 21.980469 29.953125 27.71875 29.953125 L 46.34375 29.953125 C 64.226562 29.953125 73.167969 21.160156 73.167969 3.578125 L 73.167969 -62.511719 C 73.167969 -68.546875 70.261719 -71.527344 64.375 -71.527344 Z M 64.375 -71.527344 "/></g></g></g><g fill="#ff00ff" fill-opacity="1"><g transform="translate(13.735452, 158.136781)"><g><path d="M 72.902344 -8.945312 L 72.902344 -68.503906 C 72.902344 -74.394531 69.921875 -77.300781 63.957031 -77.300781 L 34.289062 -77.375 C 16.398438 -77.375 7.453125 -68.207031 7.453125 -49.945312 L 7.453125 -8.796875 C 7.453125 -2.832031 10.4375 0.148438 16.398438 0.148438 C 22.363281 0.148438 25.34375 -2.90625 25.34375 -8.945312 L 25.417969 -23.855469 L 55.011719 -23.78125 L 55.011719 -8.945312 C 55.011719 -2.90625 58.070312 0.148438 64.183594 0.148438 C 69.996094 0.148438 72.902344 -2.90625 72.902344 -8.945312 Z M 25.34375 -41.746094 L 25.34375 -50.316406 C 25.34375 -56.429688 28.402344 -59.484375 34.4375 -59.484375 L 55.011719 -59.484375 L 55.011719 -41.746094 Z M 25.34375 -41.746094 "/></g></g></g><g fill="#ff00ff" fill-opacity="1"><g transform="translate(86.754287, 158.136781)"><g><path d="M 67.089844 -53.671875 L 67.089844 -68.503906 C 67.089844 -74.394531 64.109375 -77.300781 58.144531 -77.300781 L 34.289062 -77.375 C 16.398438 -77.375 7.453125 -68.207031 7.453125 -49.945312 L 7.453125 -8.796875 C 7.453125 -2.832031 10.4375 0.148438 16.398438 0.148438 C 22.363281 0.148438 25.34375 -2.90625 25.34375 -8.945312 L 25.34375 -50.316406 C 25.34375 -56.429688 28.402344 -59.484375 34.4375 -59.484375 L 49.199219 -59.484375 L 49.199219 -53.671875 C 49.199219 -47.632812 52.253906 -44.578125 58.292969 -44.578125 C 64.183594 -44.578125 67.089844 -47.632812 67.089844 -53.671875 Z M 67.089844 -53.671875 "/></g></g></g><g fill="#ff00ff" fill-opacity="1"><g transform="translate(153.735366, 158.136781)"><g><path d="M 72.902344 -8.945312 L 72.902344 -68.503906 C 72.902344 -74.394531 69.921875 -77.300781 63.957031 -77.300781 L 34.289062 -77.375 C 16.398438 -77.375 7.453125 -68.207031 7.453125 -49.945312 L 7.453125 -8.796875 C 7.453125 -2.832031 10.4375 0.148438 16.398438 0.148438 C 22.363281 0.148438 25.34375 -2.90625 25.34375 -8.945312 L 25.417969 -23.855469 L 55.011719 -23.78125 L 55.011719 -8.945312 C 55.011719 -2.90625 58.070312 0.148438 64.183594 0.148438 C 69.996094 0.148438 72.902344 -2.90625 72.902344 -8.945312 Z M 25.34375 -41.746094 L 25.34375 -50.316406 C 25.34375 -56.429688 28.402344 -59.484375 34.4375 -59.484375 L 55.011719 -59.484375 L 55.011719 -41.746094 Z M 25.34375 -41.746094 "/></g></g></g><g fill="#ff00ff" fill-opacity="1"><g transform="translate(226.754201, 158.136781)"><g><path d="M 16.25 0.148438 L 46.21875 0.148438 C 64.183594 0.148438 73.203125 -8.796875 73.203125 -26.6875 L 73.203125 -49.945312 C 73.203125 -68.207031 64.257812 -77.375 46.367188 -77.375 L 25.34375 -77.375 L 25.34375 -92.285156 C 25.34375 -98.324219 22.363281 -101.378906 16.398438 -101.378906 C 10.4375 -101.378906 7.453125 -98.398438 7.453125 -92.507812 L 7.453125 -8.945312 C 7.453125 -2.90625 10.363281 0.148438 16.25 0.148438 Z M 25.34375 -17.816406 L 25.34375 -59.484375 L 46.21875 -59.484375 C 52.253906 -59.484375 55.3125 -56.429688 55.3125 -50.316406 L 55.3125 -26.464844 C 55.3125 -20.722656 52.253906 -17.816406 46.21875 -17.816406 Z M 25.34375 -17.816406 "/></g></g></g><g fill="#ff00ff" fill-opacity="1"><g transform="translate(299.773037, 158.136781)"><g><path d="M 64.40625 -71.5625 C 58.367188 -71.5625 55.3125 -68.582031 55.3125 -62.542969 L 55.3125 -11.925781 L 34.4375 -11.925781 C 28.402344 -11.925781 25.34375 -14.984375 25.34375 -21.171875 L 25.34375 -62.542969 C 25.34375 -68.582031 22.363281 -71.5625 16.398438 -71.5625 C 10.4375 -71.5625 7.453125 -68.582031 7.453125 -62.617188 L 7.453125 -21.46875 C 7.453125 -3.207031 16.398438 5.964844 34.289062 5.964844 L 55.3125 5.964844 C 55.3125 10.136719 53.148438 12.226562 48.902344 12.152344 L 27.582031 12.152344 C 21.839844 12.152344 19.007812 15.132812 19.082031 21.019531 C 19.15625 26.984375 21.992188 29.964844 27.730469 29.964844 L 46.367188 29.964844 C 64.257812 29.964844 73.203125 21.171875 73.203125 3.578125 L 73.203125 -62.542969 C 73.203125 -68.582031 70.292969 -71.5625 64.40625 -71.5625 Z M 64.40625 -71.5625 "/></g></g></g><g fill="#00ffff" fill-opacity="1"><g transform="translate(8.010081, 158.136781)"><g><path d="M 72.902344 -8.945312 L 72.902344 -68.503906 C 72.902344 -74.394531 69.921875 -77.300781 63.957031 -77.300781 L 34.289062 -77.375 C 16.398438 -77.375 7.453125 -68.207031 7.453125 -49.945312 L 7.453125 -8.796875 C 7.453125 -2.832031 10.4375 0.148438 16.398438 0.148438 C 22.363281 0.148438 25.34375 -2.90625 25.34375 -8.945312 L 25.417969 -23.855469 L 55.011719 -23.78125 L 55.011719 -8.945312 C 55.011719 -2.90625 58.070312 0.148438 64.183594 0.148438 C 69.996094 0.148438 72.902344 -2.90625 72.902344 -8.945312 Z M 25.34375 -41.746094 L 25.34375 -50.316406 C 25.34375 -56.429688 28.402344 -59.484375 34.4375 -59.484375 L 55.011719 -59.484375 L 55.011719 -41.746094 Z M 25.34375 -41.746094 "/></g></g></g><g fill="#00ffff" fill-opacity="1"><g transform="translate(81.028917, 158.136781)"><g><path d="M 67.089844 -53.671875 L 67.089844 -68.503906 C 67.089844 -74.394531 64.109375 -77.300781 58.144531 -77.300781 L 34.289062 -77.375 C 16.398438 -77.375 7.453125 -68.207031 7.453125 -49.945312 L 7.453125 -8.796875 C 7.453125 -2.832031 10.4375 0.148438 16.398438 0.148438 C 22.363281 0.148438 25.34375 -2.90625 25.34375 -8.945312 L 25.34375 -50.316406 C 25.34375 -56.429688 28.402344 -59.484375 34.4375 -59.484375 L 49.199219 -59.484375 L 49.199219 -53.671875 C 49.199219 -47.632812 52.253906 -44.578125 58.292969 -44.578125 C 64.183594 -44.578125 67.089844 -47.632812 67.089844 -53.671875 Z M 67.089844 -53.671875 "/></g></g></g><g fill="#00ffff" fill-opacity="1"><g transform="translate(148.009995, 158.136781)"><g><path d="M 72.902344 -8.945312 L 72.902344 -68.503906 C 72.902344 -74.394531 69.921875 -77.300781 63.957031 -77.300781 L 34.289062 -77.375 C 16.398438 -77.375 7.453125 -68.207031 7.453125 -49.945312 L 7.453125 -8.796875 C 7.453125 -2.832031 10.4375 0.148438 16.398438 0.148438 C 22.363281 0.148438 25.34375 -2.90625 25.34375 -8.945312 L 25.417969 -23.855469 L 55.011719 -23.78125 L 55.011719 -8.945312 C 55.011719 -2.90625 58.070312 0.148438 64.183594 0.148438 C 69.996094 0.148438 72.902344 -2.90625 72.902344 -8.945312 Z M 25.34375 -41.746094 L 25.34375 -50.316406 C 25.34375 -56.429688 28.402344 -59.484375 34.4375 -59.484375 L 55.011719 -59.484375 L 55.011719 -41.746094 Z M 25.34375 -41.746094 "/></g></g></g><g fill="#00ffff" fill-opacity="1"><g transform="translate(221.028831, 158.136781)"><g><path d="M 16.25 0.148438 L 46.21875 0.148438 C 64.183594 0.148438 73.203125 -8.796875 73.203125 -26.6875 L 73.203125 -49.945312 C 73.203125 -68.207031 64.257812 -77.375 46.367188 -77.375 L 25.34375 -77.375 L 25.34375 -92.285156 C 25.34375 -98.324219 22.363281 -101.378906 16.398438 -101.378906 C 10.4375 -101.378906 7.453125 -98.398438 7.453125 -92.507812 L 7.453125 -8.945312 C 7.453125 -2.90625 10.363281 0.148438 16.25 0.148438 Z M 25.34375 -17.816406 L 25.34375 -59.484375 L 46.21875 -59.484375 C 52.253906 -59.484375 55.3125 -56.429688 55.3125 -50.316406 L 55.3125 -26.464844 C 55.3125 -20.722656 52.253906 -17.816406 46.21875 -17.816406 Z M 25.34375 -17.816406 "/></g></g></g><g fill="#00ffff" fill-opacity="1"><g transform="translate(294.047666, 158.136781)"><g><path d="M 64.40625 -71.5625 C 58.367188 -71.5625 55.3125 -68.582031 55.3125 -62.542969 L 55.3125 -11.925781 L 34.4375 -11.925781 C 28.402344 -11.925781 25.34375 -14.984375 25.34375 -21.171875 L 25.34375 -62.542969 C 25.34375 -68.582031 22.363281 -71.5625 16.398438 -71.5625 C 10.4375 -71.5625 7.453125 -68.582031 7.453125 -62.617188 L 7.453125 -21.46875 C 7.453125 -3.207031 16.398438 5.964844 34.289062 5.964844 L 55.3125 5.964844 C 55.3125 10.136719 53.148438 12.226562 48.902344 12.152344 L 27.582031 12.152344 C 21.839844 12.152344 19.007812 15.132812 19.082031 21.019531 C 19.15625 26.984375 21.992188 29.964844 27.730469 29.964844 L 46.367188 29.964844 C 64.257812 29.964844 73.203125 21.171875 73.203125 3.578125 L 73.203125 -62.542969 C 73.203125 -68.582031 70.292969 -71.5625 64.40625 -71.5625 Z M 64.40625 -71.5625 "/></g></g></g><g fill="#5e17eb" fill-opacity="1"><g transform="translate(10.872767, 158.136781)"><g><path d="M 72.902344 -8.945312 L 72.902344 -68.503906 C 72.902344 -74.394531 69.921875 -77.300781 63.957031 -77.300781 L 34.289062 -77.375 C 16.398438 -77.375 7.453125 -68.207031 7.453125 -49.945312 L 7.453125 -8.796875 C 7.453125 -2.832031 10.4375 0.148438 16.398438 0.148438 C 22.363281 0.148438 25.34375 -2.90625 25.34375 -8.945312 L 25.417969 -23.855469 L 55.011719 -23.78125 L 55.011719 -8.945312 C 55.011719 -2.90625 58.070312 0.148438 64.183594 0.148438 C 69.996094 0.148438 72.902344 -2.90625 72.902344 -8.945312 Z M 25.34375 -41.746094 L 25.34375 -50.316406 C 25.34375 -56.429688 28.402344 -59.484375 34.4375 -59.484375 L 55.011719 -59.484375 L 55.011719 -41.746094 Z M 25.34375 -41.746094 "/></g></g></g><g fill="#5e17eb" fill-opacity="1"><g transform="translate(83.891602, 158.136781)"><g><path d="M 67.089844 -53.671875 L 67.089844 -68.503906 C 67.089844 -74.394531 64.109375 -77.300781 58.144531 -77.300781 L 34.289062 -77.375 C 16.398438 -77.375 7.453125 -68.207031 7.453125 -49.945312 L 7.453125 -8.796875 C 7.453125 -2.832031 10.4375 0.148438 16.398438 0.148438 C 22.363281 0.148438 25.34375 -2.90625 25.34375 -8.945312 L 25.34375 -50.316406 C 25.34375 -56.429688 28.402344 -59.484375 34.4375 -59.484375 L 49.199219 -59.484375 L 49.199219 -53.671875 C 49.199219 -47.632812 52.253906 -44.578125 58.292969 -44.578125 C 64.183594 -44.578125 67.089844 -47.632812 67.089844 -53.671875 Z M 67.089844 -53.671875 "/></g></g></g><g fill="#5e17eb" fill-opacity="1"><g transform="translate(150.872681, 158.136781)"><g><path d="M 72.902344 -8.945312 L 72.902344 -68.503906 C 72.902344 -74.394531 69.921875 -77.300781 63.957031 -77.300781 L 34.289062 -77.375 C 16.398438 -77.375 7.453125 -68.207031 7.453125 -49.945312 L 7.453125 -8.796875 C 7.453125 -2.832031 10.4375 0.148438 16.398438 0.148438 C 22.363281 0.148438 25.34375 -2.90625 25.34375 -8.945312 L 25.417969 -23.855469 L 55.011719 -23.78125 L 55.011719 -8.945312 C 55.011719 -2.90625 58.070312 0.148438 64.183594 0.148438 C 69.996094 0.148438 72.902344 -2.90625 72.902344 -8.945312 Z M 25.34375 -41.746094 L 25.34375 -50.316406 C 25.34375 -56.429688 28.402344 -59.484375 34.4375 -59.484375 L 55.011719 -59.484375 L 55.011719 -41.746094 Z M 25.34375 -41.746094 "/></g></g></g><g fill="#5e17eb" fill-opacity="1"><g transform="translate(223.891516, 158.136781)"><g><path d="M 16.25 0.148438 L 46.21875 0.148438 C 64.183594 0.148438 73.203125 -8.796875 73.203125 -26.6875 L 73.203125 -49.945312 C 73.203125 -68.207031 64.257812 -77.375 46.367188 -77.375 L 25.34375 -77.375 L 25.34375 -92.285156 C 25.34375 -98.324219 22.363281 -101.378906 16.398438 -101.378906 C 10.4375 -101.378906 7.453125 -98.398438 7.453125 -92.507812 L 7.453125 -8.945312 C 7.453125 -2.90625 10.363281 0.148438 16.25 0.148438 Z M 25.34375 -17.816406 L 25.34375 -59.484375 L 46.21875 -59.484375 C 52.253906 -59.484375 55.3125 -56.429688 55.3125 -50.316406 L 55.3125 -26.464844 C 55.3125 -20.722656 52.253906 -17.816406 46.21875 -17.816406 Z M 25.34375 -17.816406 "/></g></g></g><g fill="#5e17eb" fill-opacity="1"><g transform="translate(296.910351, 158.136781)"><g><path d="M 64.40625 -71.5625 C 58.367188 -71.5625 55.3125 -68.582031 55.3125 -62.542969 L 55.3125 -11.925781 L 34.4375 -11.925781 C 28.402344 -11.925781 25.34375 -14.984375 25.34375 -21.171875 L 25.34375 -62.542969 C 25.34375 -68.582031 22.363281 -71.5625 16.398438 -71.5625 C 10.4375 -71.5625 7.453125 -68.582031 7.453125 -62.617188 L 7.453125 -21.46875 C 7.453125 -3.207031 16.398438 5.964844 34.289062 5.964844 L 55.3125 5.964844 C 55.3125 10.136719 53.148438 12.226562 48.902344 12.152344 L 27.582031 12.152344 C 21.839844 12.152344 19.007812 15.132812 19.082031 21.019531 C 19.15625 26.984375 21.992188 29.964844 27.730469 29.964844 L 46.367188 29.964844 C 64.257812 29.964844 73.203125 21.171875 73.203125 3.578125 L 73.203125 -62.542969 C 73.203125 -68.582031 70.292969 -71.5625 64.40625 -71.5625 Z M 64.40625 -71.5625 "/></g></g></g></svg>