<svg xmlns="http://www.w3.org/2000/svg" xmlns:xlink="http://www.w3.org/1999/xlink" width="1000" zoomAndPan="magnify" viewBox="0 0 750 225" height="300" preserveAspectRatio="xMidYMid meet" version="1.0"><defs><g/><clipPath id="2388c89b69"><path d="M 439 71 L 745 71 L 745 178 L 439 178 Z M 439 71 " clip-rule="nonzero"/></clipPath><clipPath id="b63a067a80"><path d="M 727.128906 217.957031 L 425.828125 83.355469 L 502 -87.15625 L 803.300781 47.445312 Z M 727.128906 217.957031 " clip-rule="nonzero"/></clipPath><clipPath id="001fd78c1a"><path d="M 727.128906 217.957031 L 425.828125 83.355469 L 502 -87.15625 L 803.300781 47.445312 Z M 727.128906 217.957031 " clip-rule="nonzero"/></clipPath><clipPath id="2f6486485b"><path d="M 727.128906 217.957031 L 425.828125 83.355469 L 502 -87.15625 L 803.300781 47.445312 Z M 727.128906 217.957031 " clip-rule="nonzero"/></clipPath><clipPath id="7354a0feb9"><path d="M 435 59 L 445 59 L 445 92 L 435 92 Z M 435 59 " clip-rule="nonzero"/></clipPath><clipPath id="a1b1a7578f"><path d="M 727.128906 217.957031 L 425.828125 83.355469 L 502 -87.15625 L 803.300781 47.445312 Z M 727.128906 217.957031 " clip-rule="nonzero"/></clipPath><clipPath id="88ab467146"><path d="M 727.128906 217.957031 L 425.828125 83.355469 L 502 -87.15625 L 803.300781 47.445312 Z M 727.128906 217.957031 " clip-rule="nonzero"/></clipPath><clipPath id="a894c3f9da"><path d="M 727.128906 217.957031 L 425.828125 83.355469 L 502 -87.15625 L 803.300781 47.445312 Z M 727.128906 217.957031 " clip-rule="nonzero"/></clipPath><clipPath id="ed7cc0262f"><path d="M 439 15 L 737 15 L 737 171 L 439 171 Z M 439 15 " clip-rule="nonzero"/></clipPath><clipPath id="0f01a93704"><path d="M 727.128906 217.957031 L 425.828125 83.355469 L 502 -87.15625 L 803.300781 47.445312 Z M 727.128906 217.957031 " clip-rule="nonzero"/></clipPath><clipPath id="69960bddec"><path d="M 727.128906 217.957031 L 425.828125 83.355469 L 502 -87.15625 L 803.300781 47.445312 Z M 727.128906 217.957031 " clip-rule="nonzero"/></clipPath><clipPath id="877d531614"><path d="M 727.128906 217.957031 L 425.828125 83.355469 L 502 -87.15625 L 803.300781 47.445312 Z M 727.128906 217.957031 " clip-rule="nonzero"/></clipPath><clipPath id="a12de9d27c"><path d="M 444 58 L 732 58 L 732 163 L 444 163 Z M 444 58 " clip-rule="nonzero"/></clipPath><clipPath id="7b5f908c41"><path d="M 727.128906 217.957031 L 425.828125 83.355469 L 502 -87.15625 L 803.300781 47.445312 Z M 727.128906 217.957031 " clip-rule="nonzero"/></clipPath><clipPath id="6fb48078f9"><path d="M 727.128906 217.957031 L 425.828125 83.355469 L 502 -87.15625 L 803.300781 47.445312 Z M 727.128906 217.957031 " clip-rule="nonzero"/></clipPath><clipPath id="58eb5c6168"><path d="M 727.128906 217.957031 L 425.828125 83.355469 L 502 -87.15625 L 803.300781 47.445312 Z M 727.128906 217.957031 " clip-rule="nonzero"/></clipPath><clipPath id="29b904fc3c"><path d="M 439 55 L 737 55 L 737 171 L 439 171 Z M 439 55 " clip-rule="nonzero"/></clipPath><clipPath id="c60a843a05"><path d="M 727.128906 217.957031 L 425.828125 83.355469 L 502 -87.15625 L 803.300781 47.445312 Z M 727.128906 217.957031 " clip-rule="nonzero"/></clipPath><clipPath id="814e3eb3d5"><path d="M 727.128906 217.957031 L 425.828125 83.355469 L 502 -87.15625 L 803.300781 47.445312 Z M 727.128906 217.957031 " clip-rule="nonzero"/></clipPath><clipPath id="dee4bf86e4"><path d="M 727.128906 217.957031 L 425.828125 83.355469 L 502 -87.15625 L 803.300781 47.445312 Z M 727.128906 217.957031 " clip-rule="nonzero"/></clipPath><clipPath id="ab5964c4d5"><path d="M 575 32 L 693 32 L 693 82 L 575 82 Z M 575 32 " clip-rule="nonzero"/></clipPath><clipPath id="f547335f2c"><path d="M 727.128906 217.957031 L 425.828125 83.355469 L 502 -87.15625 L 803.300781 47.445312 Z M 727.128906 217.957031 " clip-rule="nonzero"/></clipPath><clipPath id="86f1a5342d"><path d="M 727.128906 217.957031 L 425.828125 83.355469 L 502 -87.15625 L 803.300781 47.445312 Z M 727.128906 217.957031 " clip-rule="nonzero"/></clipPath><clipPath id="5d1a7ccd80"><path d="M 727.128906 217.957031 L 425.828125 83.355469 L 502 -87.15625 L 803.300781 47.445312 Z M 727.128906 217.957031 " clip-rule="nonzero"/></clipPath><clipPath id="cabfaf99c0"><path d="M 533 19 L 708 19 L 708 81 L 533 81 Z M 533 19 " clip-rule="nonzero"/></clipPath><clipPath id="ff1e32423e"><path d="M 727.128906 217.957031 L 425.828125 83.355469 L 502 -87.15625 L 803.300781 47.445312 Z M 727.128906 217.957031 " clip-rule="nonzero"/></clipPath><clipPath id="503f53c149"><path d="M 727.128906 217.957031 L 425.828125 83.355469 L 502 -87.15625 L 803.300781 47.445312 Z M 727.128906 217.957031 " clip-rule="nonzero"/></clipPath><clipPath id="89da260e4f"><path d="M 727.128906 217.957031 L 425.828125 83.355469 L 502 -87.15625 L 803.300781 47.445312 Z M 727.128906 217.957031 " clip-rule="nonzero"/></clipPath></defs><g clip-path="url(#2388c89b69)"><g clip-path="url(#b63a067a80)"><g clip-path="url(#001fd78c1a)"><g clip-path="url(#2f6486485b)"><path fill="#161617" d="M 744.890625 177.625 C 744.890625 177.625 740.789062 174.472656 733.398438 169.289062 C 726.046875 164.027344 715.253906 156.941406 702.125 148.789062 C 689.015625 140.597656 673.296875 131.789062 656.089844 123.132812 C 647.53125 118.703125 638.441406 114.640625 629.238281 110.507812 C 619.984375 106.4375 610.476562 102.59375 600.832031 99.140625 C 591.195312 95.640625 581.480469 92.332031 571.761719 89.671875 C 562.066406 86.902344 552.445312 84.496094 543.027344 82.597656 C 533.613281 80.71875 524.457031 79.148438 515.71875 78.0625 C 506.980469 77.027344 498.660156 76.222656 490.972656 76.054688 C 483.261719 75.648438 476.207031 75.867188 469.933594 75.816406 C 463.671875 76.082031 458.203125 76.414062 453.691406 76.730469 C 444.699219 77.679688 439.554688 78.21875 439.554688 78.21875 C 439.554688 78.21875 444.632812 77.179688 453.507812 75.351562 C 458.007812 74.691406 463.464844 73.929688 469.769531 73.171875 C 476.074219 72.691406 483.214844 71.917969 491.035156 72.039062 C 498.847656 71.851562 507.304688 72.253906 516.246094 72.878906 C 525.179688 73.5625 534.589844 74.667969 544.207031 76.421875 C 553.816406 78.1875 563.753906 80.214844 573.621094 83.046875 C 583.546875 85.660156 593.453125 88.953125 603.261719 92.441406 C 613.042969 96.035156 622.671875 100.015625 632.03125 104.210938 C 641.367188 108.457031 650.402344 112.9375 658.96875 117.574219 C 676.195312 126.742188 691.464844 136.671875 704.3125 145.441406 C 717.179688 154.199219 727.203125 162.460938 734.230469 168.191406 C 741.183594 174 744.890625 177.625 744.890625 177.625 " fill-opacity="1" fill-rule="nonzero"/></g></g></g></g><g clip-path="url(#7354a0feb9)"><g clip-path="url(#a1b1a7578f)"><g clip-path="url(#88ab467146)"><g clip-path="url(#a894c3f9da)"><path fill="#161617" d="M 444.683594 91.753906 C 444.683594 91.753906 442.851562 90.203125 441.085938 87.46875 C 440.179688 86.105469 439.257812 84.453125 438.410156 82.628906 C 437.480469 80.84375 436.957031 78.757812 436.324219 76.707031 C 435.878906 74.617188 435.386719 72.539062 435.191406 70.539062 C 434.988281 69.574219 435.164062 68.496094 435.175781 67.542969 C 435.199219 66.585938 435.320312 65.671875 435.441406 64.835938 C 435.839844 61.492188 436.761719 59.425781 436.761719 59.425781 C 436.761719 59.425781 438.246094 61.472656 439.5 64.351562 C 440.183594 65.785156 440.6875 67.410156 441.316406 69.210938 C 442.09375 70.984375 442.640625 72.949219 443.21875 74.902344 C 444.109375 78.859375 444.882812 82.902344 444.9375 86.148438 C 445.070312 89.367188 444.683594 91.753906 444.683594 91.753906 " fill-opacity="1" fill-rule="nonzero"/></g></g></g></g><g clip-path="url(#ed7cc0262f)"><g clip-path="url(#0f01a93704)"><g clip-path="url(#69960bddec)"><g clip-path="url(#877d531614)"><path fill="#161617" d="M 736.390625 170.742188 C 736.390625 170.742188 718.386719 70.335938 691.238281 46.683594 C 691.238281 46.683594 607.890625 -39.898438 439.09375 73.503906 L 439.554688 78.21875 C 439.554688 78.21875 582.074219 64.292969 736.390625 170.742188 " fill-opacity="1" fill-rule="nonzero"/></g></g></g></g><g clip-path="url(#a12de9d27c)"><g clip-path="url(#7b5f908c41)"><g clip-path="url(#6fb48078f9)"><g clip-path="url(#58eb5c6168)"><path fill="#ffffff" d="M 639.492188 87.085938 C 684.21875 107.066406 713.804688 133.035156 727.835938 147.21875 C 729.140625 153.035156 730.308594 158.59375 731.191406 162.890625 C 705.214844 145.570312 677.949219 130.488281 650.050781 118.023438 C 549.234375 72.984375 465.246094 73.40625 444.261719 74.355469 C 451.429688 69.625 458.855469 65.023438 466.847656 60.363281 C 529.160156 54.757812 587.25 63.75 639.492188 87.085938 " fill-opacity="1" fill-rule="nonzero"/></g></g></g></g><g clip-path="url(#29b904fc3c)"><g clip-path="url(#c60a843a05)"><g clip-path="url(#814e3eb3d5)"><g clip-path="url(#dee4bf86e4)"><path fill="#161617" d="M 439.554688 78.21875 C 439.554688 78.21875 531.996094 69.183594 648.601562 121.273438 C 676.78125 133.863281 706.351562 150.019531 736.390625 170.742188 C 736.390625 170.742188 734.074219 158.664062 731.085938 145.429688 C 714.707031 128.726562 684.785156 103.40625 640.949219 83.824219 C 596.777344 64.089844 538.488281 50.203125 465.753906 56.890625 C 457.09375 61.90625 448.246094 67.355469 439.09375 73.503906 Z M 457.003906 70.425781 C 460.558594 68.238281 464.199219 66.039062 467.957031 63.847656 C 529.367188 58.4375 586.570312 67.359375 638.035156 90.351562 C 681.476562 109.757812 710.453125 134.863281 724.585938 149.003906 C 725.054688 151.113281 725.507812 153.183594 725.925781 155.171875 C 701.976562 139.722656 677.003906 126.160156 651.507812 114.769531 C 563.554688 75.476562 489.8125 70.378906 457.003906 70.425781 " fill-opacity="1" fill-rule="nonzero"/></g></g></g></g><g clip-path="url(#ab5964c4d5)"><g clip-path="url(#f547335f2c)"><g clip-path="url(#86f1a5342d)"><g clip-path="url(#5d1a7ccd80)"><path fill="#f57e8e" d="M 692.140625 80.761719 C 692.140625 80.761719 642.308594 87.21875 619.046875 67.875 C 619.046875 67.875 631.589844 56.976562 626.238281 51.324219 C 626.238281 51.324219 593.519531 71.84375 575.019531 36.035156 C 575.019531 36.035156 668.378906 14.535156 692.140625 80.761719 " fill-opacity="1" fill-rule="nonzero"/></g></g></g></g><g clip-path="url(#cabfaf99c0)"><g clip-path="url(#ff1e32423e)"><g clip-path="url(#503f53c149)"><g clip-path="url(#89da260e4f)"><path fill="#ffffff" d="M 707.386719 80.449219 C 707.386719 80.449219 663.910156 3.957031 533.898438 31.570312 C 533.898438 31.570312 614.988281 -6.246094 693.03125 52.296875 C 693.03125 52.296875 706.058594 64.503906 707.386719 80.449219 " fill-opacity="1" fill-rule="nonzero"/></g></g></g></g><g fill="#ff00ff" fill-opacity="1"><g transform="translate(373.722143, 172.879378)"><g><path d="M 16.242188 0.148438 L 46.195312 0.148438 C 64.152344 0.148438 73.167969 -8.792969 73.167969 -26.671875 L 73.167969 -49.921875 C 73.167969 -68.175781 64.226562 -77.339844 46.34375 -77.339844 L 25.332031 -77.339844 L 25.332031 -92.242188 C 25.332031 -98.277344 22.351562 -101.332031 16.390625 -101.332031 C 10.429688 -101.332031 7.449219 -98.351562 7.449219 -92.464844 L 7.449219 -8.941406 C 7.449219 -2.90625 10.355469 0.148438 16.242188 0.148438 Z M 25.332031 -17.808594 L 25.332031 -59.457031 L 46.195312 -59.457031 C 52.230469 -59.457031 55.285156 -56.402344 55.285156 -50.292969 L 55.285156 -26.449219 C 55.285156 -20.714844 52.230469 -17.808594 46.195312 -17.808594 Z M 25.332031 -17.808594 "/></g></g></g><g fill="#ff00ff" fill-opacity="1"><g transform="translate(445.029385, 172.879378)"><g><path d="M 64.375 -77.5625 C 58.339844 -77.5625 55.285156 -74.507812 55.285156 -68.472656 L 55.285156 -17.957031 L 34.421875 -17.957031 C 28.386719 -17.957031 25.332031 -21.011719 25.332031 -27.121094 L 25.332031 -68.472656 C 25.332031 -74.507812 22.351562 -77.5625 16.390625 -77.5625 C 10.429688 -77.5625 7.449219 -74.582031 7.449219 -68.621094 L 7.449219 -27.492188 C 7.449219 -9.238281 16.390625 -0.0742188 34.273438 -0.0742188 L 64.226562 0 C 70.1875 0 73.167969 -2.90625 73.167969 -8.792969 L 73.167969 -68.472656 C 73.167969 -74.507812 70.261719 -77.5625 64.375 -77.5625 Z M 64.375 -77.5625 "/></g></g></g><g fill="#ff00ff" fill-opacity="1"><g transform="translate(516.336627, 172.879378)"><g><path d="M 73.167969 -8.941406 L 73.167969 -92.464844 C 73.167969 -98.351562 70.1875 -101.332031 64.226562 -101.332031 C 58.265625 -101.332031 55.285156 -98.277344 55.285156 -92.242188 L 55.285156 -77.339844 L 34.273438 -77.339844 C 16.390625 -77.339844 7.449219 -68.175781 7.449219 -49.921875 L 7.449219 -26.671875 C 7.449219 -8.792969 16.464844 0.148438 34.421875 0.148438 L 64.375 0.148438 C 70.261719 0.148438 73.167969 -2.90625 73.167969 -8.941406 Z M 34.421875 -17.808594 C 28.386719 -17.808594 25.332031 -20.714844 25.332031 -26.449219 L 25.332031 -50.292969 C 25.332031 -56.402344 28.386719 -59.457031 34.421875 -59.457031 L 55.285156 -59.457031 L 55.285156 -17.808594 Z M 34.421875 -17.808594 "/></g></g></g><g fill="#ff00ff" fill-opacity="1"><g transform="translate(587.643875, 172.879378)"><g><path d="M 73.167969 -8.941406 L 73.167969 -92.464844 C 73.167969 -98.351562 70.1875 -101.332031 64.226562 -101.332031 C 58.265625 -101.332031 55.285156 -98.277344 55.285156 -92.242188 L 55.285156 -77.339844 L 34.273438 -77.339844 C 16.390625 -77.339844 7.449219 -68.175781 7.449219 -49.921875 L 7.449219 -26.671875 C 7.449219 -8.792969 16.464844 0.148438 34.421875 0.148438 L 64.375 0.148438 C 70.261719 0.148438 73.167969 -2.90625 73.167969 -8.941406 Z M 34.421875 -17.808594 C 28.386719 -17.808594 25.332031 -20.714844 25.332031 -26.449219 L 25.332031 -50.292969 C 25.332031 -56.402344 28.386719 -59.457031 34.421875 -59.457031 L 55.285156 -59.457031 L 55.285156 -17.808594 Z M 34.421875 -17.808594 "/></g></g></g><g fill="#ff00ff" fill-opacity="1"><g transform="translate(658.95111, 172.879378)"><g><path d="M 64.375 -71.527344 C 58.339844 -71.527344 55.285156 -68.546875 55.285156 -62.511719 L 55.285156 -11.921875 L 34.421875 -11.921875 C 28.386719 -11.921875 25.332031 -14.976562 25.332031 -21.160156 L 25.332031 -62.511719 C 25.332031 -68.546875 22.351562 -71.527344 16.390625 -71.527344 C 10.429688 -71.527344 7.449219 -68.546875 7.449219 -62.585938 L 7.449219 -21.457031 C 7.449219 -3.203125 16.390625 5.960938 34.273438 5.960938 L 55.285156 5.960938 C 55.285156 10.132812 53.125 12.21875 48.878906 12.144531 L 27.566406 12.144531 C 21.832031 12.144531 19 15.125 19.074219 21.011719 C 19.148438 26.972656 21.980469 29.953125 27.71875 29.953125 L 46.34375 29.953125 C 64.226562 29.953125 73.167969 21.160156 73.167969 3.578125 L 73.167969 -62.511719 C 73.167969 -68.546875 70.261719 -71.527344 64.375 -71.527344 Z M 64.375 -71.527344 "/></g></g></g><g fill="#00ffff" fill-opacity="1"><g transform="translate(367.999761, 172.879378)"><g><path d="M 16.242188 0.148438 L 46.195312 0.148438 C 64.152344 0.148438 73.167969 -8.792969 73.167969 -26.671875 L 73.167969 -49.921875 C 73.167969 -68.175781 64.226562 -77.339844 46.34375 -77.339844 L 25.332031 -77.339844 L 25.332031 -92.242188 C 25.332031 -98.277344 22.351562 -101.332031 16.390625 -101.332031 C 10.429688 -101.332031 7.449219 -98.351562 7.449219 -92.464844 L 7.449219 -8.941406 C 7.449219 -2.90625 10.355469 0.148438 16.242188 0.148438 Z M 25.332031 -17.808594 L 25.332031 -59.457031 L 46.195312 -59.457031 C 52.230469 -59.457031 55.285156 -56.402344 55.285156 -50.292969 L 55.285156 -26.449219 C 55.285156 -20.714844 52.230469 -17.808594 46.195312 -17.808594 Z M 25.332031 -17.808594 "/></g></g></g><g fill="#00ffff" fill-opacity="1"><g transform="translate(439.307003, 172.879378)"><g><path d="M 64.375 -77.5625 C 58.339844 -77.5625 55.285156 -74.507812 55.285156 -68.472656 L 55.285156 -17.957031 L 34.421875 -17.957031 C 28.386719 -17.957031 25.332031 -21.011719 25.332031 -27.121094 L 25.332031 -68.472656 C 25.332031 -74.507812 22.351562 -77.5625 16.390625 -77.5625 C 10.429688 -77.5625 7.449219 -74.582031 7.449219 -68.621094 L 7.449219 -27.492188 C 7.449219 -9.238281 16.390625 -0.0742188 34.273438 -0.0742188 L 64.226562 0 C 70.1875 0 73.167969 -2.90625 73.167969 -8.792969 L 73.167969 -68.472656 C 73.167969 -74.507812 70.261719 -77.5625 64.375 -77.5625 Z M 64.375 -77.5625 "/></g></g></g><g fill="#00ffff" fill-opacity="1"><g transform="translate(510.614245, 172.879378)"><g><path d="M 73.167969 -8.941406 L 73.167969 -92.464844 C 73.167969 -98.351562 70.1875 -101.332031 64.226562 -101.332031 C 58.265625 -101.332031 55.285156 -98.277344 55.285156 -92.242188 L 55.285156 -77.339844 L 34.273438 -77.339844 C 16.390625 -77.339844 7.449219 -68.175781 7.449219 -49.921875 L 7.449219 -26.671875 C 7.449219 -8.792969 16.464844 0.148438 34.421875 0.148438 L 64.375 0.148438 C 70.261719 0.148438 73.167969 -2.90625 73.167969 -8.941406 Z M 34.421875 -17.808594 C 28.386719 -17.808594 25.332031 -20.714844 25.332031 -26.449219 L 25.332031 -50.292969 C 25.332031 -56.402344 28.386719 -59.457031 34.421875 -59.457031 L 55.285156 -59.457031 L 55.285156 -17.808594 Z M 34.421875 -17.808594 "/></g></g></g><g fill="#00ffff" fill-opacity="1"><g transform="translate(581.921492, 172.879378)"><g><path d="M 73.167969 -8.941406 L 73.167969 -92.464844 C 73.167969 -98.351562 70.1875 -101.332031 64.226562 -101.332031 C 58.265625 -101.332031 55.285156 -98.277344 55.285156 -92.242188 L 55.285156 -77.339844 L 34.273438 -77.339844 C 16.390625 -77.339844 7.449219 -68.175781 7.449219 -49.921875 L 7.449219 -26.671875 C 7.449219 -8.792969 16.464844 0.148438 34.421875 0.148438 L 64.375 0.148438 C 70.261719 0.148438 73.167969 -2.90625 73.167969 -8.941406 Z M 34.421875 -17.808594 C 28.386719 -17.808594 25.332031 -20.714844 25.332031 -26.449219 L 25.332031 -50.292969 C 25.332031 -56.402344 28.386719 -59.457031 34.421875 -59.457031 L 55.285156 -59.457031 L 55.285156 -17.808594 Z M 34.421875 -17.808594 "/></g></g></g><g fill="#00ffff" fill-opacity="1"><g transform="translate(653.228728, 172.879378)"><g><path d="M 64.375 -71.527344 C 58.339844 -71.527344 55.285156 -68.546875 55.285156 -62.511719 L 55.285156 -11.921875 L 34.421875 -11.921875 C 28.386719 -11.921875 25.332031 -14.976562 25.332031 -21.160156 L 25.332031 -62.511719 C 25.332031 -68.546875 22.351562 -71.527344 16.390625 -71.527344 C 10.429688 -71.527344 7.449219 -68.546875 7.449219 -62.585938 L 7.449219 -21.457031 C 7.449219 -3.203125 16.390625 5.960938 34.273438 5.960938 L 55.285156 5.960938 C 55.285156 10.132812 53.125 12.21875 48.878906 12.144531 L 27.566406 12.144531 C 21.832031 12.144531 19 15.125 19.074219 21.011719 C 19.148438 26.972656 21.980469 29.953125 27.71875 29.953125 L 46.34375 29.953125 C 64.226562 29.953125 73.167969 21.160156 73.167969 3.578125 L 73.167969 -62.511719 C 73.167969 -68.546875 70.261719 -71.527344 64.375 -71.527344 Z M 64.375 -71.527344 "/></g></g></g><g fill="#38b6ff" fill-opacity="1"><g transform="translate(370.860952, 172.879378)"><g><path d="M 16.242188 0.148438 L 46.195312 0.148438 C 64.152344 0.148438 73.167969 -8.792969 73.167969 -26.671875 L 73.167969 -49.921875 C 73.167969 -68.175781 64.226562 -77.339844 46.34375 -77.339844 L 25.332031 -77.339844 L 25.332031 -92.242188 C 25.332031 -98.277344 22.351562 -101.332031 16.390625 -101.332031 C 10.429688 -101.332031 7.449219 -98.351562 7.449219 -92.464844 L 7.449219 -8.941406 C 7.449219 -2.90625 10.355469 0.148438 16.242188 0.148438 Z M 25.332031 -17.808594 L 25.332031 -59.457031 L 46.195312 -59.457031 C 52.230469 -59.457031 55.285156 -56.402344 55.285156 -50.292969 L 55.285156 -26.449219 C 55.285156 -20.714844 52.230469 -17.808594 46.195312 -17.808594 Z M 25.332031 -17.808594 "/></g></g></g><g fill="#38b6ff" fill-opacity="1"><g transform="translate(442.168194, 172.879378)"><g><path d="M 64.375 -77.5625 C 58.339844 -77.5625 55.285156 -74.507812 55.285156 -68.472656 L 55.285156 -17.957031 L 34.421875 -17.957031 C 28.386719 -17.957031 25.332031 -21.011719 25.332031 -27.121094 L 25.332031 -68.472656 C 25.332031 -74.507812 22.351562 -77.5625 16.390625 -77.5625 C 10.429688 -77.5625 7.449219 -74.582031 7.449219 -68.621094 L 7.449219 -27.492188 C 7.449219 -9.238281 16.390625 -0.0742188 34.273438 -0.0742188 L 64.226562 0 C 70.1875 0 73.167969 -2.90625 73.167969 -8.792969 L 73.167969 -68.472656 C 73.167969 -74.507812 70.261719 -77.5625 64.375 -77.5625 Z M 64.375 -77.5625 "/></g></g></g><g fill="#38b6ff" fill-opacity="1"><g transform="translate(513.475436, 172.879378)"><g><path d="M 73.167969 -8.941406 L 73.167969 -92.464844 C 73.167969 -98.351562 70.1875 -101.332031 64.226562 -101.332031 C 58.265625 -101.332031 55.285156 -98.277344 55.285156 -92.242188 L 55.285156 -77.339844 L 34.273438 -77.339844 C 16.390625 -77.339844 7.449219 -68.175781 7.449219 -49.921875 L 7.449219 -26.671875 C 7.449219 -8.792969 16.464844 0.148438 34.421875 0.148438 L 64.375 0.148438 C 70.261719 0.148438 73.167969 -2.90625 73.167969 -8.941406 Z M 34.421875 -17.808594 C 28.386719 -17.808594 25.332031 -20.714844 25.332031 -26.449219 L 25.332031 -50.292969 C 25.332031 -56.402344 28.386719 -59.457031 34.421875 -59.457031 L 55.285156 -59.457031 L 55.285156 -17.808594 Z M 34.421875 -17.808594 "/></g></g></g><g fill="#38b6ff" fill-opacity="1"><g transform="translate(584.782684, 172.879378)"><g><path d="M 73.167969 -8.941406 L 73.167969 -92.464844 C 73.167969 -98.351562 70.1875 -101.332031 64.226562 -101.332031 C 58.265625 -101.332031 55.285156 -98.277344 55.285156 -92.242188 L 55.285156 -77.339844 L 34.273438 -77.339844 C 16.390625 -77.339844 7.449219 -68.175781 7.449219 -49.921875 L 7.449219 -26.671875 C 7.449219 -8.792969 16.464844 0.148438 34.421875 0.148438 L 64.375 0.148438 C 70.261719 0.148438 73.167969 -2.90625 73.167969 -8.941406 Z M 34.421875 -17.808594 C 28.386719 -17.808594 25.332031 -20.714844 25.332031 -26.449219 L 25.332031 -50.292969 C 25.332031 -56.402344 28.386719 -59.457031 34.421875 -59.457031 L 55.285156 -59.457031 L 55.285156 -17.808594 Z M 34.421875 -17.808594 "/></g></g></g><g fill="#38b6ff" fill-opacity="1"><g transform="translate(656.089919, 172.879378)"><g><path d="M 64.375 -71.527344 C 58.339844 -71.527344 55.285156 -68.546875 55.285156 -62.511719 L 55.285156 -11.921875 L 34.421875 -11.921875 C 28.386719 -11.921875 25.332031 -14.976562 25.332031 -21.160156 L 25.332031 -62.511719 C 25.332031 -68.546875 22.351562 -71.527344 16.390625 -71.527344 C 10.429688 -71.527344 7.449219 -68.546875 7.449219 -62.585938 L 7.449219 -21.457031 C 7.449219 -3.203125 16.390625 5.960938 34.273438 5.960938 L 55.285156 5.960938 C 55.285156 10.132812 53.125 12.21875 48.878906 12.144531 L 27.566406 12.144531 C 21.832031 12.144531 19 15.125 19.074219 21.011719 C 19.148438 26.972656 21.980469 29.953125 27.71875 29.953125 L 46.34375 29.953125 C 64.226562 29.953125 73.167969 21.160156 73.167969 3.578125 L 73.167969 -62.511719 C 73.167969 -68.546875 70.261719 -71.527344 64.375 -71.527344 Z M 64.375 -71.527344 "/></g></g></g><g fill="#ff00ff" fill-opacity="1"><g transform="translate(8.723684, 173.599016)"><g><path d="M 72.902344 -8.945312 L 72.902344 -68.503906 C 72.902344 -74.394531 69.921875 -77.300781 63.957031 -77.300781 L 34.289062 -77.375 C 16.398438 -77.375 7.453125 -68.207031 7.453125 -49.945312 L 7.453125 -8.796875 C 7.453125 -2.832031 10.4375 0.148438 16.398438 0.148438 C 22.363281 0.148438 25.34375 -2.90625 25.34375 -8.945312 L 25.417969 -23.855469 L 55.011719 -23.78125 L 55.011719 -8.945312 C 55.011719 -2.90625 58.070312 0.148438 64.183594 0.148438 C 69.996094 0.148438 72.902344 -2.90625 72.902344 -8.945312 Z M 25.34375 -41.746094 L 25.34375 -50.316406 C 25.34375 -56.429688 28.402344 -59.484375 34.4375 -59.484375 L 55.011719 -59.484375 L 55.011719 -41.746094 Z M 25.34375 -41.746094 "/></g></g></g><g fill="#ff00ff" fill-opacity="1"><g transform="translate(81.74252, 173.599016)"><g><path d="M 67.089844 -53.671875 L 67.089844 -68.503906 C 67.089844 -74.394531 64.109375 -77.300781 58.144531 -77.300781 L 34.289062 -77.375 C 16.398438 -77.375 7.453125 -68.207031 7.453125 -49.945312 L 7.453125 -8.796875 C 7.453125 -2.832031 10.4375 0.148438 16.398438 0.148438 C 22.363281 0.148438 25.34375 -2.90625 25.34375 -8.945312 L 25.34375 -50.316406 C 25.34375 -56.429688 28.402344 -59.484375 34.4375 -59.484375 L 49.199219 -59.484375 L 49.199219 -53.671875 C 49.199219 -47.632812 52.253906 -44.578125 58.292969 -44.578125 C 64.183594 -44.578125 67.089844 -47.632812 67.089844 -53.671875 Z M 67.089844 -53.671875 "/></g></g></g><g fill="#ff00ff" fill-opacity="1"><g transform="translate(148.723598, 173.599016)"><g><path d="M 72.902344 -8.945312 L 72.902344 -68.503906 C 72.902344 -74.394531 69.921875 -77.300781 63.957031 -77.300781 L 34.289062 -77.375 C 16.398438 -77.375 7.453125 -68.207031 7.453125 -49.945312 L 7.453125 -8.796875 C 7.453125 -2.832031 10.4375 0.148438 16.398438 0.148438 C 22.363281 0.148438 25.34375 -2.90625 25.34375 -8.945312 L 25.417969 -23.855469 L 55.011719 -23.78125 L 55.011719 -8.945312 C 55.011719 -2.90625 58.070312 0.148438 64.183594 0.148438 C 69.996094 0.148438 72.902344 -2.90625 72.902344 -8.945312 Z M 25.34375 -41.746094 L 25.34375 -50.316406 C 25.34375 -56.429688 28.402344 -59.484375 34.4375 -59.484375 L 55.011719 -59.484375 L 55.011719 -41.746094 Z M 25.34375 -41.746094 "/></g></g></g><g fill="#ff00ff" fill-opacity="1"><g transform="translate(221.742434, 173.599016)"><g><path d="M 16.25 0.148438 L 46.21875 0.148438 C 64.183594 0.148438 73.203125 -8.796875 73.203125 -26.6875 L 73.203125 -49.945312 C 73.203125 -68.207031 64.257812 -77.375 46.367188 -77.375 L 25.34375 -77.375 L 25.34375 -92.285156 C 25.34375 -98.324219 22.363281 -101.378906 16.398438 -101.378906 C 10.4375 -101.378906 7.453125 -98.398438 7.453125 -92.507812 L 7.453125 -8.945312 C 7.453125 -2.90625 10.363281 0.148438 16.25 0.148438 Z M 25.34375 -17.816406 L 25.34375 -59.484375 L 46.21875 -59.484375 C 52.253906 -59.484375 55.3125 -56.429688 55.3125 -50.316406 L 55.3125 -26.464844 C 55.3125 -20.722656 52.253906 -17.816406 46.21875 -17.816406 Z M 25.34375 -17.816406 "/></g></g></g><g fill="#ff00ff" fill-opacity="1"><g transform="translate(294.761269, 173.599016)"><g><path d="M 64.40625 -71.5625 C 58.367188 -71.5625 55.3125 -68.582031 55.3125 -62.542969 L 55.3125 -11.925781 L 34.4375 -11.925781 C 28.402344 -11.925781 25.34375 -14.984375 25.34375 -21.171875 L 25.34375 -62.542969 C 25.34375 -68.582031 22.363281 -71.5625 16.398438 -71.5625 C 10.4375 -71.5625 7.453125 -68.582031 7.453125 -62.617188 L 7.453125 -21.46875 C 7.453125 -3.207031 16.398438 5.964844 34.289062 5.964844 L 55.3125 5.964844 C 55.3125 10.136719 53.148438 12.226562 48.902344 12.152344 L 27.582031 12.152344 C 21.839844 12.152344 19.007812 15.132812 19.082031 21.019531 C 19.15625 26.984375 21.992188 29.964844 27.730469 29.964844 L 46.367188 29.964844 C 64.257812 29.964844 73.203125 21.171875 73.203125 3.578125 L 73.203125 -62.542969 C 73.203125 -68.582031 70.292969 -71.5625 64.40625 -71.5625 Z M 64.40625 -71.5625 "/></g></g></g><g fill="#00ffff" fill-opacity="1"><g transform="translate(2.998314, 173.599016)"><g><path d="M 72.902344 -8.945312 L 72.902344 -68.503906 C 72.902344 -74.394531 69.921875 -77.300781 63.957031 -77.300781 L 34.289062 -77.375 C 16.398438 -77.375 7.453125 -68.207031 7.453125 -49.945312 L 7.453125 -8.796875 C 7.453125 -2.832031 10.4375 0.148438 16.398438 0.148438 C 22.363281 0.148438 25.34375 -2.90625 25.34375 -8.945312 L 25.417969 -23.855469 L 55.011719 -23.78125 L 55.011719 -8.945312 C 55.011719 -2.90625 58.070312 0.148438 64.183594 0.148438 C 69.996094 0.148438 72.902344 -2.90625 72.902344 -8.945312 Z M 25.34375 -41.746094 L 25.34375 -50.316406 C 25.34375 -56.429688 28.402344 -59.484375 34.4375 -59.484375 L 55.011719 -59.484375 L 55.011719 -41.746094 Z M 25.34375 -41.746094 "/></g></g></g><g fill="#00ffff" fill-opacity="1"><g transform="translate(76.017149, 173.599016)"><g><path d="M 67.089844 -53.671875 L 67.089844 -68.503906 C 67.089844 -74.394531 64.109375 -77.300781 58.144531 -77.300781 L 34.289062 -77.375 C 16.398438 -77.375 7.453125 -68.207031 7.453125 -49.945312 L 7.453125 -8.796875 C 7.453125 -2.832031 10.4375 0.148438 16.398438 0.148438 C 22.363281 0.148438 25.34375 -2.90625 25.34375 -8.945312 L 25.34375 -50.316406 C 25.34375 -56.429688 28.402344 -59.484375 34.4375 -59.484375 L 49.199219 -59.484375 L 49.199219 -53.671875 C 49.199219 -47.632812 52.253906 -44.578125 58.292969 -44.578125 C 64.183594 -44.578125 67.089844 -47.632812 67.089844 -53.671875 Z M 67.089844 -53.671875 "/></g></g></g><g fill="#00ffff" fill-opacity="1"><g transform="translate(142.998228, 173.599016)"><g><path d="M 72.902344 -8.945312 L 72.902344 -68.503906 C 72.902344 -74.394531 69.921875 -77.300781 63.957031 -77.300781 L 34.289062 -77.375 C 16.398438 -77.375 7.453125 -68.207031 7.453125 -49.945312 L 7.453125 -8.796875 C 7.453125 -2.832031 10.4375 0.148438 16.398438 0.148438 C 22.363281 0.148438 25.34375 -2.90625 25.34375 -8.945312 L 25.417969 -23.855469 L 55.011719 -23.78125 L 55.011719 -8.945312 C 55.011719 -2.90625 58.070312 0.148438 64.183594 0.148438 C 69.996094 0.148438 72.902344 -2.90625 72.902344 -8.945312 Z M 25.34375 -41.746094 L 25.34375 -50.316406 C 25.34375 -56.429688 28.402344 -59.484375 34.4375 -59.484375 L 55.011719 -59.484375 L 55.011719 -41.746094 Z M 25.34375 -41.746094 "/></g></g></g><g fill="#00ffff" fill-opacity="1"><g transform="translate(216.017063, 173.599016)"><g><path d="M 16.25 0.148438 L 46.21875 0.148438 C 64.183594 0.148438 73.203125 -8.796875 73.203125 -26.6875 L 73.203125 -49.945312 C 73.203125 -68.207031 64.257812 -77.375 46.367188 -77.375 L 25.34375 -77.375 L 25.34375 -92.285156 C 25.34375 -98.324219 22.363281 -101.378906 16.398438 -101.378906 C 10.4375 -101.378906 7.453125 -98.398438 7.453125 -92.507812 L 7.453125 -8.945312 C 7.453125 -2.90625 10.363281 0.148438 16.25 0.148438 Z M 25.34375 -17.816406 L 25.34375 -59.484375 L 46.21875 -59.484375 C 52.253906 -59.484375 55.3125 -56.429688 55.3125 -50.316406 L 55.3125 -26.464844 C 55.3125 -20.722656 52.253906 -17.816406 46.21875 -17.816406 Z M 25.34375 -17.816406 "/></g></g></g><g fill="#00ffff" fill-opacity="1"><g transform="translate(289.035899, 173.599016)"><g><path d="M 64.40625 -71.5625 C 58.367188 -71.5625 55.3125 -68.582031 55.3125 -62.542969 L 55.3125 -11.925781 L 34.4375 -11.925781 C 28.402344 -11.925781 25.34375 -14.984375 25.34375 -21.171875 L 25.34375 -62.542969 C 25.34375 -68.582031 22.363281 -71.5625 16.398438 -71.5625 C 10.4375 -71.5625 7.453125 -68.582031 7.453125 -62.617188 L 7.453125 -21.46875 C 7.453125 -3.207031 16.398438 5.964844 34.289062 5.964844 L 55.3125 5.964844 C 55.3125 10.136719 53.148438 12.226562 48.902344 12.152344 L 27.582031 12.152344 C 21.839844 12.152344 19.007812 15.132812 19.082031 21.019531 C 19.15625 26.984375 21.992188 29.964844 27.730469 29.964844 L 46.367188 29.964844 C 64.257812 29.964844 73.203125 21.171875 73.203125 3.578125 L 73.203125 -62.542969 C 73.203125 -68.582031 70.292969 -71.5625 64.40625 -71.5625 Z M 64.40625 -71.5625 "/></g></g></g><g fill="#5e17eb" fill-opacity="1"><g transform="translate(5.860999, 173.599016)"><g><path d="M 72.902344 -8.945312 L 72.902344 -68.503906 C 72.902344 -74.394531 69.921875 -77.300781 63.957031 -77.300781 L 34.289062 -77.375 C 16.398438 -77.375 7.453125 -68.207031 7.453125 -49.945312 L 7.453125 -8.796875 C 7.453125 -2.832031 10.4375 0.148438 16.398438 0.148438 C 22.363281 0.148438 25.34375 -2.90625 25.34375 -8.945312 L 25.417969 -23.855469 L 55.011719 -23.78125 L 55.011719 -8.945312 C 55.011719 -2.90625 58.070312 0.148438 64.183594 0.148438 C 69.996094 0.148438 72.902344 -2.90625 72.902344 -8.945312 Z M 25.34375 -41.746094 L 25.34375 -50.316406 C 25.34375 -56.429688 28.402344 -59.484375 34.4375 -59.484375 L 55.011719 -59.484375 L 55.011719 -41.746094 Z M 25.34375 -41.746094 "/></g></g></g><g fill="#5e17eb" fill-opacity="1"><g transform="translate(78.879835, 173.599016)"><g><path d="M 67.089844 -53.671875 L 67.089844 -68.503906 C 67.089844 -74.394531 64.109375 -77.300781 58.144531 -77.300781 L 34.289062 -77.375 C 16.398438 -77.375 7.453125 -68.207031 7.453125 -49.945312 L 7.453125 -8.796875 C 7.453125 -2.832031 10.4375 0.148438 16.398438 0.148438 C 22.363281 0.148438 25.34375 -2.90625 25.34375 -8.945312 L 25.34375 -50.316406 C 25.34375 -56.429688 28.402344 -59.484375 34.4375 -59.484375 L 49.199219 -59.484375 L 49.199219 -53.671875 C 49.199219 -47.632812 52.253906 -44.578125 58.292969 -44.578125 C 64.183594 -44.578125 67.089844 -47.632812 67.089844 -53.671875 Z M 67.089844 -53.671875 "/></g></g></g><g fill="#5e17eb" fill-opacity="1"><g transform="translate(145.860913, 173.599016)"><g><path d="M 72.902344 -8.945312 L 72.902344 -68.503906 C 72.902344 -74.394531 69.921875 -77.300781 63.957031 -77.300781 L 34.289062 -77.375 C 16.398438 -77.375 7.453125 -68.207031 7.453125 -49.945312 L 7.453125 -8.796875 C 7.453125 -2.832031 10.4375 0.148438 16.398438 0.148438 C 22.363281 0.148438 25.34375 -2.90625 25.34375 -8.945312 L 25.417969 -23.855469 L 55.011719 -23.78125 L 55.011719 -8.945312 C 55.011719 -2.90625 58.070312 0.148438 64.183594 0.148438 C 69.996094 0.148438 72.902344 -2.90625 72.902344 -8.945312 Z M 25.34375 -41.746094 L 25.34375 -50.316406 C 25.34375 -56.429688 28.402344 -59.484375 34.4375 -59.484375 L 55.011719 -59.484375 L 55.011719 -41.746094 Z M 25.34375 -41.746094 "/></g></g></g><g fill="#5e17eb" fill-opacity="1"><g transform="translate(218.879749, 173.599016)"><g><path d="M 16.25 0.148438 L 46.21875 0.148438 C 64.183594 0.148438 73.203125 -8.796875 73.203125 -26.6875 L 73.203125 -49.945312 C 73.203125 -68.207031 64.257812 -77.375 46.367188 -77.375 L 25.34375 -77.375 L 25.34375 -92.285156 C 25.34375 -98.324219 22.363281 -101.378906 16.398438 -101.378906 C 10.4375 -101.378906 7.453125 -98.398438 7.453125 -92.507812 L 7.453125 -8.945312 C 7.453125 -2.90625 10.363281 0.148438 16.25 0.148438 Z M 25.34375 -17.816406 L 25.34375 -59.484375 L 46.21875 -59.484375 C 52.253906 -59.484375 55.3125 -56.429688 55.3125 -50.316406 L 55.3125 -26.464844 C 55.3125 -20.722656 52.253906 -17.816406 46.21875 -17.816406 Z M 25.34375 -17.816406 "/></g></g></g><g fill="#5e17eb" fill-opacity="1"><g transform="translate(291.898584, 173.599016)"><g><path d="M 64.40625 -71.5625 C 58.367188 -71.5625 55.3125 -68.582031 55.3125 -62.542969 L 55.3125 -11.925781 L 34.4375 -11.925781 C 28.402344 -11.925781 25.34375 -14.984375 25.34375 -21.171875 L 25.34375 -62.542969 C 25.34375 -68.582031 22.363281 -71.5625 16.398438 -71.5625 C 10.4375 -71.5625 7.453125 -68.582031 7.453125 -62.617188 L 7.453125 -21.46875 C 7.453125 -3.207031 16.398438 5.964844 34.289062 5.964844 L 55.3125 5.964844 C 55.3125 10.136719 53.148438 12.226562 48.902344 12.152344 L 27.582031 12.152344 C 21.839844 12.152344 19.007812 15.132812 19.082031 21.019531 C 19.15625 26.984375 21.992188 29.964844 27.730469 29.964844 L 46.367188 29.964844 C 64.257812 29.964844 73.203125 21.171875 73.203125 3.578125 L 73.203125 -62.542969 C 73.203125 -68.582031 70.292969 -71.5625 64.40625 -71.5625 Z M 64.40625 -71.5625 "/></g></g></g></svg>