<svg xmlns="http://www.w3.org/2000/svg" xmlns:xlink="http://www.w3.org/1999/xlink" width="1000" zoomAndPan="magnify" viewBox="0 0 750 225" height="300" preserveAspectRatio="xMidYMid meet" version="1.0"><defs><g/></defs><g fill="#ff00ff" fill-opacity="1"><g transform="translate(378.538285, 159.171699)"><g><path d="M 15.878906 0.144531 L 45.164062 0.144531 C 62.722656 0.144531 71.535156 -8.597656 71.535156 -26.078125 L 71.535156 -48.808594 C 71.535156 -66.65625 62.792969 -75.617188 45.3125 -75.617188 L 24.769531 -75.617188 L 24.769531 -90.183594 C 24.769531 -96.085938 21.855469 -99.074219 16.027344 -99.074219 C 10.199219 -99.074219 7.285156 -96.160156 7.285156 -90.402344 L 7.285156 -8.742188 C 7.285156 -2.839844 10.125 0.144531 15.878906 0.144531 Z M 24.769531 -17.410156 L 24.769531 -58.132812 L 45.164062 -58.132812 C 51.066406 -58.132812 54.054688 -55.144531 54.054688 -49.171875 L 54.054688 -25.859375 C 54.054688 -20.25 51.066406 -17.410156 45.164062 -17.410156 Z M 24.769531 -17.410156 "/></g></g></g><g fill="#ff00ff" fill-opacity="1"><g transform="translate(448.256655, 159.171699)"><g><path d="M 62.941406 -75.835938 C 57.039062 -75.835938 54.054688 -72.847656 54.054688 -66.945312 L 54.054688 -17.554688 L 33.65625 -17.554688 C 27.753906 -17.554688 24.769531 -20.542969 24.769531 -26.515625 L 24.769531 -66.945312 C 24.769531 -72.847656 21.855469 -75.835938 16.027344 -75.835938 C 10.199219 -75.835938 7.285156 -72.921875 7.285156 -67.09375 L 7.285156 -26.878906 C 7.285156 -9.03125 16.027344 -0.0742188 33.511719 -0.0742188 L 62.792969 0 C 68.621094 0 71.535156 -2.839844 71.535156 -8.597656 L 71.535156 -66.945312 C 71.535156 -72.847656 68.695312 -75.835938 62.941406 -75.835938 Z M 62.941406 -75.835938 "/></g></g></g><g fill="#ff00ff" fill-opacity="1"><g transform="translate(517.975026, 159.171699)"><g><path d="M 71.535156 -8.742188 L 71.535156 -90.402344 C 71.535156 -96.160156 68.621094 -99.074219 62.792969 -99.074219 C 56.964844 -99.074219 54.054688 -96.085938 54.054688 -90.183594 L 54.054688 -75.617188 L 33.511719 -75.617188 C 16.027344 -75.617188 7.285156 -66.65625 7.285156 -48.808594 L 7.285156 -26.078125 C 7.285156 -8.597656 16.097656 0.144531 33.65625 0.144531 L 62.941406 0.144531 C 68.695312 0.144531 71.535156 -2.839844 71.535156 -8.742188 Z M 33.65625 -17.410156 C 27.753906 -17.410156 24.769531 -20.25 24.769531 -25.859375 L 24.769531 -49.171875 C 24.769531 -55.144531 27.753906 -58.132812 33.65625 -58.132812 L 54.054688 -58.132812 L 54.054688 -17.410156 Z M 33.65625 -17.410156 "/></g></g></g><g fill="#ff00ff" fill-opacity="1"><g transform="translate(587.693402, 159.171699)"><g><path d="M 71.535156 -8.742188 L 71.535156 -90.402344 C 71.535156 -96.160156 68.621094 -99.074219 62.792969 -99.074219 C 56.964844 -99.074219 54.054688 -96.085938 54.054688 -90.183594 L 54.054688 -75.617188 L 33.511719 -75.617188 C 16.027344 -75.617188 7.285156 -66.65625 7.285156 -48.808594 L 7.285156 -26.078125 C 7.285156 -8.597656 16.097656 0.144531 33.65625 0.144531 L 62.941406 0.144531 C 68.695312 0.144531 71.535156 -2.839844 71.535156 -8.742188 Z M 33.65625 -17.410156 C 27.753906 -17.410156 24.769531 -20.25 24.769531 -25.859375 L 24.769531 -49.171875 C 24.769531 -55.144531 27.753906 -58.132812 33.65625 -58.132812 L 54.054688 -58.132812 L 54.054688 -17.410156 Z M 33.65625 -17.410156 "/></g></g></g><g fill="#ff00ff" fill-opacity="1"><g transform="translate(657.411766, 159.171699)"><g><path d="M 62.941406 -69.933594 C 57.039062 -69.933594 54.054688 -67.019531 54.054688 -61.117188 L 54.054688 -11.65625 L 33.65625 -11.65625 C 27.753906 -11.65625 24.769531 -14.640625 24.769531 -20.6875 L 24.769531 -61.117188 C 24.769531 -67.019531 21.855469 -69.933594 16.027344 -69.933594 C 10.199219 -69.933594 7.285156 -67.019531 7.285156 -61.191406 L 7.285156 -20.980469 C 7.285156 -3.132812 16.027344 5.828125 33.511719 5.828125 L 54.054688 5.828125 C 54.054688 9.90625 51.941406 11.945312 47.789062 11.875 L 26.953125 11.875 C 21.34375 11.875 18.574219 14.789062 18.648438 20.542969 C 18.722656 26.371094 21.488281 29.285156 27.097656 29.285156 L 45.3125 29.285156 C 62.792969 29.285156 71.535156 20.6875 71.535156 3.496094 L 71.535156 -61.117188 C 71.535156 -67.019531 68.695312 -69.933594 62.941406 -69.933594 Z M 62.941406 -69.933594 "/></g></g></g><g fill="#00ffff" fill-opacity="1"><g transform="translate(372.943403, 159.171699)"><g><path d="M 15.878906 0.144531 L 45.164062 0.144531 C 62.722656 0.144531 71.535156 -8.597656 71.535156 -26.078125 L 71.535156 -48.808594 C 71.535156 -66.65625 62.792969 -75.617188 45.3125 -75.617188 L 24.769531 -75.617188 L 24.769531 -90.183594 C 24.769531 -96.085938 21.855469 -99.074219 16.027344 -99.074219 C 10.199219 -99.074219 7.285156 -96.160156 7.285156 -90.402344 L 7.285156 -8.742188 C 7.285156 -2.839844 10.125 0.144531 15.878906 0.144531 Z M 24.769531 -17.410156 L 24.769531 -58.132812 L 45.164062 -58.132812 C 51.066406 -58.132812 54.054688 -55.144531 54.054688 -49.171875 L 54.054688 -25.859375 C 54.054688 -20.25 51.066406 -17.410156 45.164062 -17.410156 Z M 24.769531 -17.410156 "/></g></g></g><g fill="#00ffff" fill-opacity="1"><g transform="translate(442.661773, 159.171699)"><g><path d="M 62.941406 -75.835938 C 57.039062 -75.835938 54.054688 -72.847656 54.054688 -66.945312 L 54.054688 -17.554688 L 33.65625 -17.554688 C 27.753906 -17.554688 24.769531 -20.542969 24.769531 -26.515625 L 24.769531 -66.945312 C 24.769531 -72.847656 21.855469 -75.835938 16.027344 -75.835938 C 10.199219 -75.835938 7.285156 -72.921875 7.285156 -67.09375 L 7.285156 -26.878906 C 7.285156 -9.03125 16.027344 -0.0742188 33.511719 -0.0742188 L 62.792969 0 C 68.621094 0 71.535156 -2.839844 71.535156 -8.597656 L 71.535156 -66.945312 C 71.535156 -72.847656 68.695312 -75.835938 62.941406 -75.835938 Z M 62.941406 -75.835938 "/></g></g></g><g fill="#00ffff" fill-opacity="1"><g transform="translate(512.380144, 159.171699)"><g><path d="M 71.535156 -8.742188 L 71.535156 -90.402344 C 71.535156 -96.160156 68.621094 -99.074219 62.792969 -99.074219 C 56.964844 -99.074219 54.054688 -96.085938 54.054688 -90.183594 L 54.054688 -75.617188 L 33.511719 -75.617188 C 16.027344 -75.617188 7.285156 -66.65625 7.285156 -48.808594 L 7.285156 -26.078125 C 7.285156 -8.597656 16.097656 0.144531 33.65625 0.144531 L 62.941406 0.144531 C 68.695312 0.144531 71.535156 -2.839844 71.535156 -8.742188 Z M 33.65625 -17.410156 C 27.753906 -17.410156 24.769531 -20.25 24.769531 -25.859375 L 24.769531 -49.171875 C 24.769531 -55.144531 27.753906 -58.132812 33.65625 -58.132812 L 54.054688 -58.132812 L 54.054688 -17.410156 Z M 33.65625 -17.410156 "/></g></g></g><g fill="#00ffff" fill-opacity="1"><g transform="translate(582.098519, 159.171699)"><g><path d="M 71.535156 -8.742188 L 71.535156 -90.402344 C 71.535156 -96.160156 68.621094 -99.074219 62.792969 -99.074219 C 56.964844 -99.074219 54.054688 -96.085938 54.054688 -90.183594 L 54.054688 -75.617188 L 33.511719 -75.617188 C 16.027344 -75.617188 7.285156 -66.65625 7.285156 -48.808594 L 7.285156 -26.078125 C 7.285156 -8.597656 16.097656 0.144531 33.65625 0.144531 L 62.941406 0.144531 C 68.695312 0.144531 71.535156 -2.839844 71.535156 -8.742188 Z M 33.65625 -17.410156 C 27.753906 -17.410156 24.769531 -20.25 24.769531 -25.859375 L 24.769531 -49.171875 C 24.769531 -55.144531 27.753906 -58.132812 33.65625 -58.132812 L 54.054688 -58.132812 L 54.054688 -17.410156 Z M 33.65625 -17.410156 "/></g></g></g><g fill="#00ffff" fill-opacity="1"><g transform="translate(651.816884, 159.171699)"><g><path d="M 62.941406 -69.933594 C 57.039062 -69.933594 54.054688 -67.019531 54.054688 -61.117188 L 54.054688 -11.65625 L 33.65625 -11.65625 C 27.753906 -11.65625 24.769531 -14.640625 24.769531 -20.6875 L 24.769531 -61.117188 C 24.769531 -67.019531 21.855469 -69.933594 16.027344 -69.933594 C 10.199219 -69.933594 7.285156 -67.019531 7.285156 -61.191406 L 7.285156 -20.980469 C 7.285156 -3.132812 16.027344 5.828125 33.511719 5.828125 L 54.054688 5.828125 C 54.054688 9.90625 51.941406 11.945312 47.789062 11.875 L 26.953125 11.875 C 21.34375 11.875 18.574219 14.789062 18.648438 20.542969 C 18.722656 26.371094 21.488281 29.285156 27.097656 29.285156 L 45.3125 29.285156 C 62.792969 29.285156 71.535156 20.6875 71.535156 3.496094 L 71.535156 -61.117188 C 71.535156 -67.019531 68.695312 -69.933594 62.941406 -69.933594 Z M 62.941406 -69.933594 "/></g></g></g><g fill="#38b6ff" fill-opacity="1"><g transform="translate(375.740843, 159.171699)"><g><path d="M 15.878906 0.144531 L 45.164062 0.144531 C 62.722656 0.144531 71.535156 -8.597656 71.535156 -26.078125 L 71.535156 -48.808594 C 71.535156 -66.65625 62.792969 -75.617188 45.3125 -75.617188 L 24.769531 -75.617188 L 24.769531 -90.183594 C 24.769531 -96.085938 21.855469 -99.074219 16.027344 -99.074219 C 10.199219 -99.074219 7.285156 -96.160156 7.285156 -90.402344 L 7.285156 -8.742188 C 7.285156 -2.839844 10.125 0.144531 15.878906 0.144531 Z M 24.769531 -17.410156 L 24.769531 -58.132812 L 45.164062 -58.132812 C 51.066406 -58.132812 54.054688 -55.144531 54.054688 -49.171875 L 54.054688 -25.859375 C 54.054688 -20.25 51.066406 -17.410156 45.164062 -17.410156 Z M 24.769531 -17.410156 "/></g></g></g><g fill="#38b6ff" fill-opacity="1"><g transform="translate(445.459213, 159.171699)"><g><path d="M 62.941406 -75.835938 C 57.039062 -75.835938 54.054688 -72.847656 54.054688 -66.945312 L 54.054688 -17.554688 L 33.65625 -17.554688 C 27.753906 -17.554688 24.769531 -20.542969 24.769531 -26.515625 L 24.769531 -66.945312 C 24.769531 -72.847656 21.855469 -75.835938 16.027344 -75.835938 C 10.199219 -75.835938 7.285156 -72.921875 7.285156 -67.09375 L 7.285156 -26.878906 C 7.285156 -9.03125 16.027344 -0.0742188 33.511719 -0.0742188 L 62.792969 0 C 68.621094 0 71.535156 -2.839844 71.535156 -8.597656 L 71.535156 -66.945312 C 71.535156 -72.847656 68.695312 -75.835938 62.941406 -75.835938 Z M 62.941406 -75.835938 "/></g></g></g><g fill="#38b6ff" fill-opacity="1"><g transform="translate(515.177584, 159.171699)"><g><path d="M 71.535156 -8.742188 L 71.535156 -90.402344 C 71.535156 -96.160156 68.621094 -99.074219 62.792969 -99.074219 C 56.964844 -99.074219 54.054688 -96.085938 54.054688 -90.183594 L 54.054688 -75.617188 L 33.511719 -75.617188 C 16.027344 -75.617188 7.285156 -66.65625 7.285156 -48.808594 L 7.285156 -26.078125 C 7.285156 -8.597656 16.097656 0.144531 33.65625 0.144531 L 62.941406 0.144531 C 68.695312 0.144531 71.535156 -2.839844 71.535156 -8.742188 Z M 33.65625 -17.410156 C 27.753906 -17.410156 24.769531 -20.25 24.769531 -25.859375 L 24.769531 -49.171875 C 24.769531 -55.144531 27.753906 -58.132812 33.65625 -58.132812 L 54.054688 -58.132812 L 54.054688 -17.410156 Z M 33.65625 -17.410156 "/></g></g></g><g fill="#38b6ff" fill-opacity="1"><g transform="translate(584.895959, 159.171699)"><g><path d="M 71.535156 -8.742188 L 71.535156 -90.402344 C 71.535156 -96.160156 68.621094 -99.074219 62.792969 -99.074219 C 56.964844 -99.074219 54.054688 -96.085938 54.054688 -90.183594 L 54.054688 -75.617188 L 33.511719 -75.617188 C 16.027344 -75.617188 7.285156 -66.65625 7.285156 -48.808594 L 7.285156 -26.078125 C 7.285156 -8.597656 16.097656 0.144531 33.65625 0.144531 L 62.941406 0.144531 C 68.695312 0.144531 71.535156 -2.839844 71.535156 -8.742188 Z M 33.65625 -17.410156 C 27.753906 -17.410156 24.769531 -20.25 24.769531 -25.859375 L 24.769531 -49.171875 C 24.769531 -55.144531 27.753906 -58.132812 33.65625 -58.132812 L 54.054688 -58.132812 L 54.054688 -17.410156 Z M 33.65625 -17.410156 "/></g></g></g><g fill="#38b6ff" fill-opacity="1"><g transform="translate(654.614323, 159.171699)"><g><path d="M 62.941406 -69.933594 C 57.039062 -69.933594 54.054688 -67.019531 54.054688 -61.117188 L 54.054688 -11.65625 L 33.65625 -11.65625 C 27.753906 -11.65625 24.769531 -14.640625 24.769531 -20.6875 L 24.769531 -61.117188 C 24.769531 -67.019531 21.855469 -69.933594 16.027344 -69.933594 C 10.199219 -69.933594 7.285156 -67.019531 7.285156 -61.191406 L 7.285156 -20.980469 C 7.285156 -3.132812 16.027344 5.828125 33.511719 5.828125 L 54.054688 5.828125 C 54.054688 9.90625 51.941406 11.945312 47.789062 11.875 L 26.953125 11.875 C 21.34375 11.875 18.574219 14.789062 18.648438 20.542969 C 18.722656 26.371094 21.488281 29.285156 27.097656 29.285156 L 45.3125 29.285156 C 62.792969 29.285156 71.535156 20.6875 71.535156 3.496094 L 71.535156 -61.117188 C 71.535156 -67.019531 68.695312 -69.933594 62.941406 -69.933594 Z M 62.941406 -69.933594 "/></g></g></g><g fill="#ff00ff" fill-opacity="1"><g transform="translate(17.550036, 152.20547)"><g><path d="M 71.277344 -8.746094 L 71.277344 -66.980469 C 71.277344 -72.738281 68.363281 -75.578125 62.535156 -75.578125 L 33.527344 -75.652344 C 16.035156 -75.652344 7.289062 -66.6875 7.289062 -48.832031 L 7.289062 -8.601562 C 7.289062 -2.769531 10.203125 0.144531 16.035156 0.144531 C 21.863281 0.144531 24.78125 -2.84375 24.78125 -8.746094 L 24.851562 -23.324219 L 53.789062 -23.25 L 53.789062 -8.746094 C 53.789062 -2.84375 56.777344 0.144531 62.753906 0.144531 C 68.4375 0.144531 71.277344 -2.84375 71.277344 -8.746094 Z M 24.78125 -40.8125 L 24.78125 -49.195312 C 24.78125 -55.171875 27.769531 -58.160156 33.671875 -58.160156 L 53.789062 -58.160156 L 53.789062 -40.8125 Z M 24.78125 -40.8125 "/></g></g></g><g fill="#ff00ff" fill-opacity="1"><g transform="translate(88.941864, 152.20547)"><g><path d="M 65.59375 -52.476562 L 65.59375 -66.980469 C 65.59375 -72.738281 62.679688 -75.578125 56.847656 -75.578125 L 33.527344 -75.652344 C 16.035156 -75.652344 7.289062 -66.6875 7.289062 -48.832031 L 7.289062 -8.601562 C 7.289062 -2.769531 10.203125 0.144531 16.035156 0.144531 C 21.863281 0.144531 24.78125 -2.84375 24.78125 -8.746094 L 24.78125 -49.195312 C 24.78125 -55.171875 27.769531 -58.160156 33.671875 -58.160156 L 48.101562 -58.160156 L 48.101562 -52.476562 C 48.101562 -46.570312 51.089844 -43.582031 56.996094 -43.582031 C 62.753906 -43.582031 65.59375 -46.570312 65.59375 -52.476562 Z M 65.59375 -52.476562 "/></g></g></g><g fill="#ff00ff" fill-opacity="1"><g transform="translate(154.430469, 152.20547)"><g><path d="M 71.277344 -8.746094 L 71.277344 -66.980469 C 71.277344 -72.738281 68.363281 -75.578125 62.535156 -75.578125 L 33.527344 -75.652344 C 16.035156 -75.652344 7.289062 -66.6875 7.289062 -48.832031 L 7.289062 -8.601562 C 7.289062 -2.769531 10.203125 0.144531 16.035156 0.144531 C 21.863281 0.144531 24.78125 -2.84375 24.78125 -8.746094 L 24.851562 -23.324219 L 53.789062 -23.25 L 53.789062 -8.746094 C 53.789062 -2.84375 56.777344 0.144531 62.753906 0.144531 C 68.4375 0.144531 71.277344 -2.84375 71.277344 -8.746094 Z M 24.78125 -40.8125 L 24.78125 -49.195312 C 24.78125 -55.171875 27.769531 -58.160156 33.671875 -58.160156 L 53.789062 -58.160156 L 53.789062 -40.8125 Z M 24.78125 -40.8125 "/></g></g></g><g fill="#ff00ff" fill-opacity="1"><g transform="translate(225.822298, 152.20547)"><g><path d="M 15.886719 0.144531 L 45.1875 0.144531 C 62.753906 0.144531 71.570312 -8.601562 71.570312 -26.09375 L 71.570312 -48.832031 C 71.570312 -66.6875 62.824219 -75.652344 45.332031 -75.652344 L 24.78125 -75.652344 L 24.78125 -90.230469 C 24.78125 -96.132812 21.863281 -99.121094 16.035156 -99.121094 C 10.203125 -99.121094 7.289062 -96.207031 7.289062 -90.449219 L 7.289062 -8.746094 C 7.289062 -2.84375 10.128906 0.144531 15.886719 0.144531 Z M 24.78125 -17.417969 L 24.78125 -58.160156 L 45.1875 -58.160156 C 51.089844 -58.160156 54.078125 -55.171875 54.078125 -49.195312 L 54.078125 -25.875 C 54.078125 -20.261719 51.089844 -17.417969 45.1875 -17.417969 Z M 24.78125 -17.417969 "/></g></g></g><g fill="#ff00ff" fill-opacity="1"><g transform="translate(297.214126, 152.20547)"><g><path d="M 62.96875 -69.96875 C 57.066406 -69.96875 54.078125 -67.050781 54.078125 -61.148438 L 54.078125 -11.660156 L 33.671875 -11.660156 C 27.769531 -11.660156 24.78125 -14.648438 24.78125 -20.699219 L 24.78125 -61.148438 C 24.78125 -67.050781 21.863281 -69.96875 16.035156 -69.96875 C 10.203125 -69.96875 7.289062 -67.050781 7.289062 -61.222656 L 7.289062 -20.988281 C 7.289062 -3.132812 16.035156 5.832031 33.527344 5.832031 L 54.078125 5.832031 C 54.078125 9.910156 51.964844 11.953125 47.8125 11.878906 L 26.964844 11.878906 C 21.355469 11.878906 18.585938 14.796875 18.65625 20.554688 C 18.730469 26.382812 21.5 29.296875 27.113281 29.296875 L 45.332031 29.296875 C 62.824219 29.296875 71.570312 20.699219 71.570312 3.5 L 71.570312 -61.148438 C 71.570312 -67.050781 68.726562 -69.96875 62.96875 -69.96875 Z M 62.96875 -69.96875 "/></g></g></g><g fill="#00ffff" fill-opacity="1"><g transform="translate(11.952237, 152.20547)"><g><path d="M 71.277344 -8.746094 L 71.277344 -66.980469 C 71.277344 -72.738281 68.363281 -75.578125 62.535156 -75.578125 L 33.527344 -75.652344 C 16.035156 -75.652344 7.289062 -66.6875 7.289062 -48.832031 L 7.289062 -8.601562 C 7.289062 -2.769531 10.203125 0.144531 16.035156 0.144531 C 21.863281 0.144531 24.78125 -2.84375 24.78125 -8.746094 L 24.851562 -23.324219 L 53.789062 -23.25 L 53.789062 -8.746094 C 53.789062 -2.84375 56.777344 0.144531 62.753906 0.144531 C 68.4375 0.144531 71.277344 -2.84375 71.277344 -8.746094 Z M 24.78125 -40.8125 L 24.78125 -49.195312 C 24.78125 -55.171875 27.769531 -58.160156 33.671875 -58.160156 L 53.789062 -58.160156 L 53.789062 -40.8125 Z M 24.78125 -40.8125 "/></g></g></g><g fill="#00ffff" fill-opacity="1"><g transform="translate(83.344066, 152.20547)"><g><path d="M 65.59375 -52.476562 L 65.59375 -66.980469 C 65.59375 -72.738281 62.679688 -75.578125 56.847656 -75.578125 L 33.527344 -75.652344 C 16.035156 -75.652344 7.289062 -66.6875 7.289062 -48.832031 L 7.289062 -8.601562 C 7.289062 -2.769531 10.203125 0.144531 16.035156 0.144531 C 21.863281 0.144531 24.78125 -2.84375 24.78125 -8.746094 L 24.78125 -49.195312 C 24.78125 -55.171875 27.769531 -58.160156 33.671875 -58.160156 L 48.101562 -58.160156 L 48.101562 -52.476562 C 48.101562 -46.570312 51.089844 -43.582031 56.996094 -43.582031 C 62.753906 -43.582031 65.59375 -46.570312 65.59375 -52.476562 Z M 65.59375 -52.476562 "/></g></g></g><g fill="#00ffff" fill-opacity="1"><g transform="translate(148.832671, 152.20547)"><g><path d="M 71.277344 -8.746094 L 71.277344 -66.980469 C 71.277344 -72.738281 68.363281 -75.578125 62.535156 -75.578125 L 33.527344 -75.652344 C 16.035156 -75.652344 7.289062 -66.6875 7.289062 -48.832031 L 7.289062 -8.601562 C 7.289062 -2.769531 10.203125 0.144531 16.035156 0.144531 C 21.863281 0.144531 24.78125 -2.84375 24.78125 -8.746094 L 24.851562 -23.324219 L 53.789062 -23.25 L 53.789062 -8.746094 C 53.789062 -2.84375 56.777344 0.144531 62.753906 0.144531 C 68.4375 0.144531 71.277344 -2.84375 71.277344 -8.746094 Z M 24.78125 -40.8125 L 24.78125 -49.195312 C 24.78125 -55.171875 27.769531 -58.160156 33.671875 -58.160156 L 53.789062 -58.160156 L 53.789062 -40.8125 Z M 24.78125 -40.8125 "/></g></g></g><g fill="#00ffff" fill-opacity="1"><g transform="translate(220.224499, 152.20547)"><g><path d="M 15.886719 0.144531 L 45.1875 0.144531 C 62.753906 0.144531 71.570312 -8.601562 71.570312 -26.09375 L 71.570312 -48.832031 C 71.570312 -66.6875 62.824219 -75.652344 45.332031 -75.652344 L 24.78125 -75.652344 L 24.78125 -90.230469 C 24.78125 -96.132812 21.863281 -99.121094 16.035156 -99.121094 C 10.203125 -99.121094 7.289062 -96.207031 7.289062 -90.449219 L 7.289062 -8.746094 C 7.289062 -2.84375 10.128906 0.144531 15.886719 0.144531 Z M 24.78125 -17.417969 L 24.78125 -58.160156 L 45.1875 -58.160156 C 51.089844 -58.160156 54.078125 -55.171875 54.078125 -49.195312 L 54.078125 -25.875 C 54.078125 -20.261719 51.089844 -17.417969 45.1875 -17.417969 Z M 24.78125 -17.417969 "/></g></g></g><g fill="#00ffff" fill-opacity="1"><g transform="translate(291.616327, 152.20547)"><g><path d="M 62.96875 -69.96875 C 57.066406 -69.96875 54.078125 -67.050781 54.078125 -61.148438 L 54.078125 -11.660156 L 33.671875 -11.660156 C 27.769531 -11.660156 24.78125 -14.648438 24.78125 -20.699219 L 24.78125 -61.148438 C 24.78125 -67.050781 21.863281 -69.96875 16.035156 -69.96875 C 10.203125 -69.96875 7.289062 -67.050781 7.289062 -61.222656 L 7.289062 -20.988281 C 7.289062 -3.132812 16.035156 5.832031 33.527344 5.832031 L 54.078125 5.832031 C 54.078125 9.910156 51.964844 11.953125 47.8125 11.878906 L 26.964844 11.878906 C 21.355469 11.878906 18.585938 14.796875 18.65625 20.554688 C 18.730469 26.382812 21.5 29.296875 27.113281 29.296875 L 45.332031 29.296875 C 62.824219 29.296875 71.570312 20.699219 71.570312 3.5 L 71.570312 -61.148438 C 71.570312 -67.050781 68.726562 -69.96875 62.96875 -69.96875 Z M 62.96875 -69.96875 "/></g></g></g><g fill="#5e17eb" fill-opacity="1"><g transform="translate(14.751136, 152.20547)"><g><path d="M 71.277344 -8.746094 L 71.277344 -66.980469 C 71.277344 -72.738281 68.363281 -75.578125 62.535156 -75.578125 L 33.527344 -75.652344 C 16.035156 -75.652344 7.289062 -66.6875 7.289062 -48.832031 L 7.289062 -8.601562 C 7.289062 -2.769531 10.203125 0.144531 16.035156 0.144531 C 21.863281 0.144531 24.78125 -2.84375 24.78125 -8.746094 L 24.851562 -23.324219 L 53.789062 -23.25 L 53.789062 -8.746094 C 53.789062 -2.84375 56.777344 0.144531 62.753906 0.144531 C 68.4375 0.144531 71.277344 -2.84375 71.277344 -8.746094 Z M 24.78125 -40.8125 L 24.78125 -49.195312 C 24.78125 -55.171875 27.769531 -58.160156 33.671875 -58.160156 L 53.789062 -58.160156 L 53.789062 -40.8125 Z M 24.78125 -40.8125 "/></g></g></g><g fill="#5e17eb" fill-opacity="1"><g transform="translate(86.142965, 152.20547)"><g><path d="M 65.59375 -52.476562 L 65.59375 -66.980469 C 65.59375 -72.738281 62.679688 -75.578125 56.847656 -75.578125 L 33.527344 -75.652344 C 16.035156 -75.652344 7.289062 -66.6875 7.289062 -48.832031 L 7.289062 -8.601562 C 7.289062 -2.769531 10.203125 0.144531 16.035156 0.144531 C 21.863281 0.144531 24.78125 -2.84375 24.78125 -8.746094 L 24.78125 -49.195312 C 24.78125 -55.171875 27.769531 -58.160156 33.671875 -58.160156 L 48.101562 -58.160156 L 48.101562 -52.476562 C 48.101562 -46.570312 51.089844 -43.582031 56.996094 -43.582031 C 62.753906 -43.582031 65.59375 -46.570312 65.59375 -52.476562 Z M 65.59375 -52.476562 "/></g></g></g><g fill="#5e17eb" fill-opacity="1"><g transform="translate(151.63157, 152.20547)"><g><path d="M 71.277344 -8.746094 L 71.277344 -66.980469 C 71.277344 -72.738281 68.363281 -75.578125 62.535156 -75.578125 L 33.527344 -75.652344 C 16.035156 -75.652344 7.289062 -66.6875 7.289062 -48.832031 L 7.289062 -8.601562 C 7.289062 -2.769531 10.203125 0.144531 16.035156 0.144531 C 21.863281 0.144531 24.78125 -2.84375 24.78125 -8.746094 L 24.851562 -23.324219 L 53.789062 -23.25 L 53.789062 -8.746094 C 53.789062 -2.84375 56.777344 0.144531 62.753906 0.144531 C 68.4375 0.144531 71.277344 -2.84375 71.277344 -8.746094 Z M 24.78125 -40.8125 L 24.78125 -49.195312 C 24.78125 -55.171875 27.769531 -58.160156 33.671875 -58.160156 L 53.789062 -58.160156 L 53.789062 -40.8125 Z M 24.78125 -40.8125 "/></g></g></g><g fill="#5e17eb" fill-opacity="1"><g transform="translate(223.023398, 152.20547)"><g><path d="M 15.886719 0.144531 L 45.1875 0.144531 C 62.753906 0.144531 71.570312 -8.601562 71.570312 -26.09375 L 71.570312 -48.832031 C 71.570312 -66.6875 62.824219 -75.652344 45.332031 -75.652344 L 24.78125 -75.652344 L 24.78125 -90.230469 C 24.78125 -96.132812 21.863281 -99.121094 16.035156 -99.121094 C 10.203125 -99.121094 7.289062 -96.207031 7.289062 -90.449219 L 7.289062 -8.746094 C 7.289062 -2.84375 10.128906 0.144531 15.886719 0.144531 Z M 24.78125 -17.417969 L 24.78125 -58.160156 L 45.1875 -58.160156 C 51.089844 -58.160156 54.078125 -55.171875 54.078125 -49.195312 L 54.078125 -25.875 C 54.078125 -20.261719 51.089844 -17.417969 45.1875 -17.417969 Z M 24.78125 -17.417969 "/></g></g></g><g fill="#5e17eb" fill-opacity="1"><g transform="translate(294.415226, 152.20547)"><g><path d="M 62.96875 -69.96875 C 57.066406 -69.96875 54.078125 -67.050781 54.078125 -61.148438 L 54.078125 -11.660156 L 33.671875 -11.660156 C 27.769531 -11.660156 24.78125 -14.648438 24.78125 -20.699219 L 24.78125 -61.148438 C 24.78125 -67.050781 21.863281 -69.96875 16.035156 -69.96875 C 10.203125 -69.96875 7.289062 -67.050781 7.289062 -61.222656 L 7.289062 -20.988281 C 7.289062 -3.132812 16.035156 5.832031 33.527344 5.832031 L 54.078125 5.832031 C 54.078125 9.910156 51.964844 11.953125 47.8125 11.878906 L 26.964844 11.878906 C 21.355469 11.878906 18.585938 14.796875 18.65625 20.554688 C 18.730469 26.382812 21.5 29.296875 27.113281 29.296875 L 45.332031 29.296875 C 62.824219 29.296875 71.570312 20.699219 71.570312 3.5 L 71.570312 -61.148438 C 71.570312 -67.050781 68.726562 -69.96875 62.96875 -69.96875 Z M 62.96875 -69.96875 "/></g></g></g></svg>